<?xml version="1.0" encoding="utf-8"?>
<!-- Generator: Adobe Illustrator 27.5.0, SVG Export Plug-In . SVG Version: 6.00 Build 0)  -->
<svg version="1.1" xmlns="http://www.w3.org/2000/svg" xmlns:xlink="http://www.w3.org/1999/xlink" x="0px" y="0px"
	 viewBox="0 0 3710 3710" style="enable-background:new 0 0 3710 3710;" xml:space="preserve">
<g id="Background">
	<g>
		<g>
			<rect style="fill:#FFFFFF;" width="3710" height="3710"/>
		</g>
	</g>
</g>
<g id="Illustration">
	<g>
		<circle style="fill:#F4F7FA;" cx="1830.342" cy="1880.15" r="1430.142"/>
		<g>
			
				<linearGradient id="SVGID_1_" gradientUnits="userSpaceOnUse" x1="-1371.5336" y1="824.8668" x2="-771.6749" y2="1842.3474" gradientTransform="matrix(-0.9994 -0.034 -0.034 0.9994 1519.9918 -127.3651)">
				<stop  offset="0" style="stop-color:#311944"/>
				<stop  offset="1" style="stop-color:#893976"/>
			</linearGradient>
			<path style="fill:url(#SVGID_1_);" d="M2325.768,1196.767c4.771-140.109,124.046-258.06,265.625-263.422
				c140.719-5.33,250.346,102.709,245.627,241.284c-4.719,138.576-122.038,256.438-262.809,263.297
				C2432.579,1444.826,2320.997,1336.876,2325.768,1196.767z"/>
			
				<linearGradient id="SVGID_00000114764703628763944180000015235996706213575103_" gradientUnits="userSpaceOnUse" x1="-1655.4349" y1="336.3151" x2="-405.2374" y2="2456.9009" gradientTransform="matrix(-0.9994 -0.034 -0.034 0.9994 1519.9918 -127.3651)">
				<stop  offset="0" style="stop-color:#311944"/>
				<stop  offset="1" style="stop-color:#893976"/>
			</linearGradient>
			<path style="fill:url(#SVGID_00000114764703628763944180000015235996706213575103_);" d="M2037.435,1174.063l-2.322,68.181
				c-0.681,20.004,15.364,35.478,35.825,34.566l37.183-1.657c3.552,32.408,10.671,63.535,21.011,93.005l-31.407,18.839
				c-18.039,10.818-24.859,33.23-15.225,50.051l32.807,57.279c9.615,16.79,56.046,26.77,74.036,15.926l5.67-23.089
				c19.884,24.846,42.65,47.252,67.84,66.81l-17.187,28.422c-10.742,17.767-5.466,39.509,11.777,48.559l58.689,30.789
				c17.19,9.018,72.999,10.419,83.69-7.316l-16.75-35.784c30.473,10.398,62.662,17.475,96.143,20.876l-1.028,30.208
				c-0.676,19.822,15.079,35.014,35.175,33.939l68.379-3.661c20.024-1.072,36.79-17.96,37.464-37.725l1.025-30.119
				c33.597-6.881,66.069-17.284,96.982-30.79l14.446,25.517c9.373,16.555,66.921,25.072,84.473,14.316l24.024-40.438
				c17.498-10.727,24.117-32.806,14.793-49.337l-14.934-26.471c25.982-21.869,49.733-46.277,70.793-72.776l27.744,14.854
				c16.762,8.974,66.411,13.564,76.846-3.915l7.935-71.011c10.417-17.448,5.317-38.878-11.396-47.882l-29.157-15.711
				c11.977-29.983,20.936-61.287,26.525-93.524l35.807-1.595c19.658-0.876,36.123-17.461,36.791-37.048l2.273-66.76
				c0.667-19.588-14.716-34.798-34.373-33.976l-37.91,1.583c-4.312-31.001-11.924-60.763-22.5-88.952l34.698-20.916
				c17.377-10.48,23.952-32.413,14.695-49.012l6.602-66.34c-9.273-16.628-69.098-11.925-86.521-1.476l-36.514,21.9
				c-18.969-22.929-40.448-43.713-64.068-62.01l22.49-37.304c10.479-17.381,5.346-38.958-11.471-48.199l-25.013-36.194
				c-16.87-9.27-71.492,1.957-82.021,19.371l-23.114,38.226c-28.187-9.666-57.869-16.534-88.747-20.237l1.49-43.762
				c0.673-19.765-14.991-35.253-35-34.597l-68.331,2.24c-20.081,0.658-36.918,17.257-37.593,37.079l-1.495,43.886
				c-31.419,5.865-61.924,14.851-91.177,26.576l13.578-46.3c-9.513-16.864-66.127-12.674-83.983-2.144l-60.962,35.958
				c-17.91,10.563-24.686,32.83-15.123,49.716l20.495,36.196c-25.518,20.316-49.055,43.038-70.196,67.789l1.543-23.193
				c-17.302-9.321-77.802,1.135-88.592,18.807l-36.811,60.284c-10.808,17.703-5.498,39.592,11.856,48.886l34.579,18.51
				c-12.95,29.634-22.942,60.65-29.596,92.669l-39.364,1.644C2055.265,1137.153,2038.116,1154.059,2037.435,1174.063z
				 M2211.489,1207.46c6.568-192.897,170.782-355.288,365.701-362.67c193.737-7.338,344.666,141.406,338.169,332.191
				c-6.497,190.786-168.017,353.053-361.826,362.497C2358.542,1548.979,2204.92,1400.357,2211.489,1207.46z"/>
			
				<linearGradient id="SVGID_00000053507006135663636760000009103280689027126430_" gradientUnits="userSpaceOnUse" x1="-1675.5266" y1="348.6999" x2="-444.8131" y2="2436.2368" gradientTransform="matrix(-0.9994 -0.034 -0.034 0.9994 1519.9918 -127.3651)">
				<stop  offset="0" style="stop-color:#FF9085"/>
				<stop  offset="1" style="stop-color:#FB6FBB"/>
			</linearGradient>
			<path style="fill:url(#SVGID_00000053507006135663636760000009103280689027126430_);" d="M2083.229,1173.484l-2.322,68.18
				c-0.682,20.004,15.364,35.477,35.824,34.566l37.184-1.657c3.552,32.408,10.671,63.535,21.01,93.005l-31.407,18.839
				c-18.04,10.818-24.859,33.231-15.227,50.052l32.808,57.279c9.616,16.791,32,21.597,49.989,10.754l29.718-17.917
				c19.884,24.846,42.649,47.252,67.839,66.81l-17.187,28.422c-10.742,17.766-5.466,39.51,11.777,48.559l58.689,30.789
				c17.19,9.018,39.786,1.943,50.478-15.792l16.463-27.308c30.473,10.398,62.662,17.475,96.143,20.876l-1.028,30.209
				c-0.675,19.821,15.079,35.013,35.174,33.938l68.379-3.661c20.023-1.071,36.79-17.96,37.463-37.725l1.025-30.119
				c33.596-6.881,66.069-17.284,96.982-30.789l14.446,25.517c9.373,16.556,31.206,21.244,48.757,10.489l59.74-36.611
				c17.498-10.728,24.117-32.807,14.792-49.338l-14.934-26.471c25.981-21.869,49.733-46.277,70.793-72.776l27.744,14.854
				c16.762,8.974,38.805,2.073,49.24-15.406l35.54-59.52c10.417-17.447,5.318-38.877-11.396-47.881l-29.157-15.71
				c11.977-29.984,20.936-61.288,26.524-93.525l35.807-1.596c19.659-0.876,36.124-17.461,36.792-37.048l2.273-66.761
				c0.667-19.587-14.716-34.798-34.373-33.976l-37.91,1.583c-4.311-31.002-11.923-60.763-22.499-88.953l34.698-20.916
				c17.376-10.479,23.952-32.413,14.694-49.011l-31.585-56.623c-9.273-16.628-30.91-21.643-48.334-11.193l-36.514,21.901
				c-18.97-22.93-40.448-43.713-64.068-62.011l22.49-37.304c10.48-17.382,5.347-38.958-11.471-48.2l-57.417-31.558
				c-16.87-9.27-39.087-2.68-49.616,14.736l-23.115,38.226c-28.186-9.666-57.869-16.534-88.747-20.238l1.491-43.762
				c0.673-19.765-14.991-35.254-35-34.598l-68.332,2.241c-20.081,0.659-36.917,17.257-37.592,37.079l-1.495,43.886
				c-31.419,5.865-61.923,14.852-91.177,26.576l-20.857-36.969c-9.513-16.864-31.693-22.006-49.549-11.475l-60.962,35.958
				c-17.911,10.563-24.686,32.83-15.124,49.716l20.495,36.197c-25.519,20.316-49.056,43.038-70.196,67.788l-36.179-19.493
				c-17.302-9.32-40.08-2.565-50.869,15.106l-36.811,60.284c-10.808,17.703-5.498,39.592,11.856,48.886l34.579,18.511
				c-12.95,29.634-22.943,60.65-29.596,92.669l-39.364,1.644C2101.058,1136.573,2083.91,1153.479,2083.229,1173.484z
				 M2242.352,1207.527c6.848-201.081,178.027-370.359,381.216-378.056c201.956-7.65,359.289,147.405,352.516,346.283
				c-6.772,198.879-175.145,368.032-377.176,377.876C2395.643,1563.534,2235.504,1408.607,2242.352,1207.527z"/>
			
				<linearGradient id="SVGID_00000103246897627498749900000003328997494322033812_" gradientUnits="userSpaceOnUse" x1="-1399.5441" y1="829.8604" x2="-799.6854" y2="1847.3411" gradientTransform="matrix(-0.9994 -0.034 -0.034 0.9994 1519.9918 -127.3651)">
				<stop  offset="0" style="stop-color:#FF9085"/>
				<stop  offset="1" style="stop-color:#FB6FBB"/>
			</linearGradient>
			<path style="fill:url(#SVGID_00000103246897627498749900000003328997494322033812_);" d="M2353.592,1202.71
				c4.771-140.109,124.046-258.06,265.625-263.422c140.719-5.33,250.346,102.709,245.627,241.284
				c-4.719,138.576-122.038,256.438-262.81,263.297C2460.403,1450.769,2348.82,1342.819,2353.592,1202.71z"/>
		</g>
		<g>
			<path style="fill:#AEB7C4;" d="M1081.235,2801.7l-2.179,63.992c-0.639,18.776,14.42,33.298,33.624,32.442l34.898-1.555
				c3.333,30.417,10.016,59.632,19.72,87.292l-29.478,17.682c-16.931,10.154-23.331,31.189-14.29,46.976l30.792,53.76
				c9.025,15.759,52.603,25.126,69.487,14.948l5.322-21.671c18.662,23.32,40.03,44.349,63.672,62.706l-16.131,26.676
				c-10.082,16.676-5.13,37.082,11.054,45.576l55.083,28.898c16.134,8.464,68.514,9.779,78.549-6.867l-15.721-33.585
				c28.601,9.759,58.812,16.402,90.237,19.593l-0.965,28.353c-0.634,18.604,14.153,32.863,33.014,31.854l64.178-3.436
				c18.794-1.006,34.53-16.856,35.162-35.408l0.962-28.268c31.533-6.459,62.01-16.222,91.024-28.898l13.559,23.949
				c8.797,15.538,62.81,23.532,79.283,13.437l22.548-37.954c16.423-10.068,22.636-30.791,13.884-46.306l-14.017-24.844
				c24.386-20.526,46.678-43.434,66.444-68.306l26.04,13.941c15.732,8.423,62.331,12.73,72.125-3.674l7.447-66.648
				c9.777-16.376,4.991-36.49-10.696-44.94l-27.366-14.746c11.242-28.141,19.65-57.522,24.895-87.779l33.608-1.498
				c18.45-0.822,33.904-16.388,34.53-34.772l2.134-62.659c0.626-18.385-13.812-32.66-32.261-31.889l-35.581,1.486
				c-4.047-29.097-11.191-57.03-21.118-83.488l32.567-19.631c16.309-9.836,22.481-30.422,13.792-46.001l6.196-62.264
				c-8.704-15.606-64.853-11.193-81.206-1.385l-34.271,20.555c-17.804-21.52-37.963-41.028-60.132-58.2l21.108-35.013
				c9.835-16.313,5.018-36.564-10.766-45.238l-23.477-33.971c-15.833-8.7-67.1,1.837-76.982,18.181l-21.694,35.878
				c-26.455-9.072-54.314-15.519-83.295-18.994l1.399-41.074c0.632-18.551-14.07-33.087-32.85-32.472l-64.133,2.103
				c-18.848,0.618-34.65,16.197-35.284,34.801l-1.403,41.19c-29.489,5.505-58.119,13.939-85.576,24.943l12.744-43.455
				c-8.929-15.828-62.065-11.896-78.823-2.012l-57.217,33.749c-16.81,9.914-23.169,30.813-14.194,46.662l19.236,33.972
				c-23.95,19.068-46.042,40.394-65.884,63.625l1.448-21.768c-16.24-8.748-73.023,1.065-83.149,17.651l-34.549,56.581
				c-10.144,16.615-5.16,37.16,11.128,45.883l32.455,17.373c-12.154,27.814-21.533,56.924-27.778,86.976l-36.945,1.543
				C1097.969,2767.057,1081.874,2782.925,1081.235,2801.7z M1244.596,2833.045c6.165-181.047,160.291-333.461,343.235-340.391
				c181.836-6.886,323.492,132.719,317.394,311.784c-6.097,179.065-157.695,331.364-339.598,340.227
				C1382.615,3153.584,1238.431,3014.092,1244.596,2833.045z"/>
			<path style="fill:#D8DEE8;" d="M1124.215,2801.156l-2.179,63.992c-0.64,18.775,14.42,33.298,33.623,32.442l34.899-1.555
				c3.333,30.417,10.016,59.632,19.719,87.292l-29.478,17.682c-16.932,10.154-23.332,31.189-14.291,46.977l30.792,53.76
				c9.025,15.759,30.034,20.27,46.917,10.093l27.892-16.816c18.662,23.32,40.029,44.349,63.672,62.706l-16.131,26.676
				c-10.082,16.675-5.13,37.082,11.054,45.576l55.083,28.898c16.134,8.464,37.342,1.823,47.377-14.822l15.451-25.631
				c28.601,9.76,58.813,16.402,90.237,19.594l-0.965,28.353c-0.634,18.604,14.153,32.863,33.013,31.853l64.178-3.436
				c18.793-1.006,34.53-16.857,35.162-35.407l0.963-28.269c31.532-6.458,62.01-16.222,91.024-28.898l13.559,23.949
				c8.797,15.539,29.289,19.939,45.762,9.844l56.07-34.362c16.423-10.069,22.636-30.792,13.884-46.307l-14.016-24.845
				c24.385-20.526,46.678-43.434,66.444-68.305l26.039,13.942c15.733,8.422,36.421,1.946,46.215-14.459l33.357-55.864
				c9.777-16.375,4.991-36.489-10.695-44.94l-27.366-14.745c11.242-28.142,19.65-57.523,24.895-87.779l33.607-1.498
				c18.451-0.823,33.905-16.388,34.531-34.772l2.134-62.659c0.626-18.384-13.812-32.66-32.261-31.889l-35.582,1.486
				c-4.046-29.097-11.19-57.03-21.117-83.488l32.567-19.631c16.309-9.835,22.481-30.422,13.792-46l-29.645-53.145
				c-8.704-15.606-29.012-20.314-45.365-10.506l-34.271,20.555c-17.804-21.521-37.963-41.028-60.132-58.201l21.108-35.012
				c9.836-16.314,5.019-36.565-10.766-45.239l-53.89-29.619c-15.833-8.7-36.686-2.515-46.568,13.83l-21.695,35.877
				c-26.455-9.072-54.314-15.518-83.295-18.995l1.399-41.073c0.632-18.551-14.07-33.088-32.85-32.472l-64.134,2.103
				c-18.847,0.618-34.649,16.197-35.283,34.801l-1.403,41.19c-29.489,5.505-58.119,13.939-85.576,24.943l-19.575-34.698
				c-8.929-15.828-29.746-20.654-46.505-10.77l-57.216,33.75c-16.811,9.914-23.169,30.813-14.195,46.661l19.236,33.973
				c-23.951,19.068-46.042,40.394-65.884,63.624l-33.957-18.295c-16.239-8.748-37.618-2.407-47.744,14.178l-34.549,56.581
				c-10.144,16.616-5.16,37.16,11.128,45.883l32.455,17.374c-12.155,27.814-21.534,56.924-27.778,86.977l-36.946,1.543
				C1140.949,2766.513,1124.854,2782.38,1124.215,2801.156z M1273.563,2833.108c6.427-188.728,167.09-347.607,357.797-354.831
				c189.549-7.18,337.217,138.349,330.86,325.01c-6.356,186.662-164.385,345.423-354.005,354.662
				C1417.437,3167.245,1267.136,3021.835,1273.563,2833.108z"/>
		</g>
		<g>
			<path style="fill:#AEB7C4;" d="M467.277,1688.407l-3.17,96.728c-0.93,28.38,20.98,50.332,48.919,49.039l50.773-2.351
				c4.849,45.977,14.571,90.138,28.69,131.947l-42.887,26.728c-24.632,15.348-33.944,47.144-20.79,71.008l44.798,81.262
				c13.13,23.82,76.53,37.979,101.095,22.595l7.742-32.757c27.151,35.249,58.238,67.037,92.635,94.783l-23.468,40.322
				c-14.668,25.206-7.464,56.052,16.082,68.891l80.139,43.681c23.472,12.793,99.679,14.782,114.278-10.38l-22.872-50.766
				c41.611,14.751,85.564,24.792,131.283,29.616l-1.404,42.856c-0.922,28.122,20.591,49.675,48.03,48.149l93.37-5.194
				c27.343-1.521,50.237-25.48,51.157-53.521l1.4-42.73c45.876-9.763,90.217-24.521,132.428-43.682l19.726,36.201
				c12.798,23.487,91.381,35.57,115.347,20.311l32.804-57.37c23.893-15.219,32.932-46.542,20.199-69.995l-20.393-37.554
				c35.478-31.026,67.91-65.653,96.667-103.249l37.884,21.073c22.888,12.732,90.683,19.243,104.933-5.554l10.835-100.743
				c14.225-24.753,7.261-55.156-15.561-67.93l-39.814-22.289c16.355-42.537,28.588-86.949,36.219-132.683l48.894-2.264
				c26.842-1.242,49.326-24.772,50.237-52.56l3.104-94.713c0.911-27.789-20.094-49.368-46.935-48.202l-51.766,2.245
				c-5.887-43.981-16.281-86.205-30.723-126.197l47.38-29.673c23.728-14.868,32.707-45.985,20.066-69.534l9.015-94.117
				c-12.663-23.59-94.353-16.919-118.144-2.094l-49.86,31.07c-25.902-32.529-55.231-62.016-87.484-87.974l30.709-52.924
				c14.31-24.659,7.301-55.27-15.664-68.38l-34.156-51.349c-23.035-13.151-97.621,2.776-111.999,27.482l-31.562,54.232
				c-38.489-13.713-79.02-23.457-121.183-28.711l2.035-62.086c0.919-28.041-20.47-50.014-47.793-49.083l-93.305,3.178
				c-27.421,0.934-50.411,24.483-51.333,52.605l-2.041,62.262c-42.902,8.321-84.556,21.069-124.501,37.703l18.54-65.686
				c-12.99-23.924-90.296-17.981-114.677-3.042l-83.243,51.014c-24.457,14.986-33.708,46.576-20.651,70.532l27.985,51.351
				c-34.845,28.823-66.984,61.058-95.852,96.173l2.107-32.904c-23.626-13.223-106.239,1.611-120.971,26.681l-50.265,85.526
				c-14.758,25.115-7.507,56.169,16.19,69.355l47.218,26.26c-17.683,42.042-31.328,86.044-40.413,131.471l-53.751,2.333
				C491.624,1636.043,468.207,1660.028,467.277,1688.407z M704.946,1735.788c8.969-273.664,233.202-504.049,499.362-514.523
				c264.547-10.41,470.638,200.613,461.766,471.282c-8.871,270.668-229.426,500.879-494.07,514.276
				C905.746,2220.303,695.977,2009.452,704.946,1735.788z"/>
			<path style="fill:#D8DEE8;" d="M529.808,1687.585l-3.17,96.728c-0.931,28.38,20.98,50.332,48.917,49.038l50.774-2.351
				c4.849,45.977,14.571,90.137,28.689,131.947l-42.886,26.728c-24.633,15.348-33.945,47.145-20.792,71.009l44.798,81.262
				c13.13,23.821,43.695,30.64,68.259,15.256l40.579-25.419c27.151,35.25,58.237,67.037,92.634,94.784l-23.468,40.322
				c-14.668,25.205-7.463,56.052,16.082,68.891l80.139,43.681c23.473,12.793,54.328,2.756,68.927-22.405l22.48-38.742
				c41.611,14.752,85.564,24.792,131.283,29.617l-1.404,42.857c-0.922,28.121,20.591,49.674,48.03,48.148l93.371-5.194
				c27.342-1.52,50.237-25.48,51.156-53.521l1.401-42.73c45.875-9.762,90.216-24.52,132.428-43.681l19.726,36.201
				c12.798,23.488,42.611,30.139,66.577,14.88l81.574-51.94c23.893-15.219,32.932-46.543,20.198-69.995l-20.392-37.555
				c35.477-31.026,67.91-65.653,96.667-103.248l37.884,21.074c22.889,12.731,52.988,2.941,67.238-21.856l48.53-84.442
				c14.224-24.753,7.261-55.156-15.56-67.929l-39.814-22.289c16.355-42.538,28.588-86.95,36.219-132.684l48.894-2.264
				c26.844-1.243,49.327-24.771,50.239-52.56l3.104-94.714c0.911-27.789-20.095-49.368-46.935-48.202l-51.767,2.246
				c-5.886-43.982-16.281-86.205-30.722-126.198l47.38-29.673c23.727-14.866,32.707-45.985,20.065-69.532l-43.129-80.332
				c-12.663-23.59-42.208-30.706-66-15.88l-49.86,31.071c-25.903-32.531-55.231-62.016-87.485-87.975l30.709-52.923
				c14.31-24.659,7.301-55.27-15.664-68.381l-78.403-44.771c-23.036-13.151-53.373-3.802-67.751,20.906l-31.563,54.231
				c-38.488-13.713-79.019-23.457-121.183-28.712l2.036-62.085c0.919-28.041-20.47-50.014-47.793-49.084l-93.306,3.179
				c-27.42,0.934-50.41,24.483-51.332,52.604l-2.041,62.262c-42.902,8.321-84.556,21.07-124.501,37.703l-28.48-52.448
				c-12.99-23.925-43.277-31.22-67.659-16.28l-83.242,51.015c-24.457,14.985-33.708,46.575-20.651,70.532l27.986,51.352
				c-34.845,28.823-66.985,61.058-95.852,96.172l-49.403-27.654c-23.626-13.223-54.729-3.638-69.461,21.431l-50.265,85.526
				c-14.759,25.116-7.507,56.17,16.19,69.355l47.218,26.261c-17.683,42.042-31.328,86.044-40.413,131.471l-53.752,2.333
				C554.154,1635.22,530.738,1659.205,529.808,1687.585z M747.089,1735.883c9.35-285.274,243.094-525.431,520.547-536.35
				c275.769-10.853,490.606,209.124,481.357,491.274c-9.247,282.151-239.159,522.129-515.03,536.095
				C956.408,2240.953,737.739,2021.157,747.089,1735.883z"/>
		</g>
		<g>
			<path style="fill:#AEB7C4;" d="M2092.115,2286.616l-2.348,71.634c-0.689,21.018,15.537,37.275,36.228,36.317l37.601-1.741
				c3.591,34.05,10.791,66.754,21.247,97.717l-31.761,19.794c-18.242,11.366-25.138,34.914-15.397,52.586l33.176,60.181
				c9.723,17.641,56.676,28.126,74.868,16.733l5.734-24.259c20.107,26.104,43.13,49.646,68.603,70.194l-17.38,29.861
				c-10.863,18.667-5.528,41.511,11.91,51.019l59.349,32.349c17.383,9.474,73.82,10.947,84.631-7.687l-16.939-37.596
				c30.816,10.925,63.366,18.361,97.224,21.933l-1.04,31.739c-0.683,20.826,15.249,36.788,35.57,35.658l69.148-3.846
				c20.249-1.127,37.204-18.87,37.885-39.636l1.037-31.644c33.975-7.23,66.812-18.16,98.073-32.35l14.609,26.809
				c9.478,17.394,67.674,26.343,85.423,15.042l24.294-42.487c17.695-11.271,24.389-34.468,14.959-51.836l-15.102-27.812
				c26.274-22.977,50.292-48.621,71.589-76.463l28.056,15.606c16.95,9.429,67.158,14.251,77.71-4.113l8.024-74.608
				c10.534-18.332,5.377-40.847-11.524-50.307l-29.486-16.507c12.112-31.501,21.172-64.392,26.823-98.262l36.21-1.677
				c19.879-0.92,36.53-18.345,37.204-38.925l2.299-70.142c0.674-20.58-14.881-36.56-34.759-35.697l-38.336,1.663
				c-4.36-32.571-12.057-63.841-22.753-93.458l35.088-21.975c17.572-11.011,24.222-34.055,14.86-51.495l6.676-69.7
				c-9.378-17.47-69.875-12.53-87.494-1.551l-36.925,23.01c-19.183-24.09-40.903-45.928-64.789-65.151l22.743-39.194
				c10.597-18.262,5.406-40.931-11.6-50.641l-25.295-38.028c-17.059-9.739-72.296,2.056-82.943,20.352l-23.374,40.162
				c-28.504-10.156-58.52-17.372-89.745-21.262l1.507-45.979c0.681-20.767-15.159-37.039-35.394-36.35l-69.099,2.354
				c-20.307,0.691-37.333,18.132-38.016,38.958l-1.511,46.109c-31.772,6.162-62.62,15.603-92.202,27.922l13.73-48.645
				c-9.62-17.718-66.871-13.317-84.927-2.253l-61.648,37.78c-18.112,11.098-24.963,34.493-15.293,52.234l20.725,38.029
				c-25.805,21.346-49.607,45.218-70.985,71.223l1.561-24.368c-17.497-9.793-78.677,1.193-89.588,19.759l-37.225,63.338
				c-10.93,18.599-5.56,41.597,11.99,51.363l34.968,19.448c-13.095,31.135-23.2,63.722-29.929,97.364l-39.807,1.728
				C2110.146,2247.836,2092.804,2265.599,2092.115,2286.616z M2268.126,2321.705c6.642-202.668,172.703-373.285,369.814-381.042
				c195.916-7.709,348.542,148.569,341.972,349.019c-6.569,200.45-169.906,370.938-365.895,380.859
				C2416.833,2680.524,2261.484,2524.373,2268.126,2321.705z"/>
			<path style="fill:#D8DEE8;" d="M2138.424,2286.007l-2.347,71.634c-0.689,21.017,15.537,37.274,36.227,36.317l37.602-1.741
				c3.592,34.05,10.791,66.753,21.247,97.716l-31.76,19.794c-18.243,11.366-25.139,34.914-15.398,52.587l33.177,60.181
				c9.724,17.641,32.359,22.691,50.551,11.298l30.052-18.825c20.107,26.105,43.129,49.646,68.602,70.195l-17.38,29.861
				c-10.863,18.667-5.527,41.511,11.91,51.019l59.349,32.349c17.384,9.474,40.234,2.041,51.045-16.593l16.648-28.692
				c30.816,10.925,63.366,18.361,97.224,21.934l-1.04,31.739c-0.683,20.825,15.249,36.787,35.57,35.657l69.148-3.846
				c20.249-1.125,37.204-18.87,37.885-39.636l1.037-31.645c33.974-7.229,66.812-18.159,98.073-32.349l14.609,26.809
				c9.478,17.395,31.557,22.32,49.305,11.02l60.411-38.465c17.695-11.271,24.389-34.469,14.958-51.837l-15.102-27.812
				c26.274-22.977,50.292-48.621,71.589-76.463l28.056,15.607c16.951,9.428,39.241,2.178,49.794-16.186l35.94-62.535
				c10.534-18.331,5.378-40.847-11.524-50.307l-29.485-16.506c12.112-31.503,21.171-64.393,26.823-98.262l36.209-1.676
				c19.88-0.921,36.531-18.345,37.205-38.925l2.299-70.143c0.674-20.58-14.882-36.561-34.759-35.698l-38.337,1.664
				c-4.359-32.572-12.057-63.841-22.752-93.459l35.088-21.975c17.571-11.009,24.221-34.055,14.86-51.494l-31.94-59.491
				c-9.378-17.47-31.258-22.74-48.877-11.76l-36.925,23.01c-19.183-24.091-40.903-45.928-64.789-65.152l22.742-39.193
				c10.598-18.262,5.407-40.932-11.6-50.641l-58.063-33.156c-17.06-9.739-39.527-2.816-50.174,15.482l-23.375,40.162
				c-28.503-10.156-58.52-17.372-89.745-21.263l1.508-45.979c0.681-20.767-15.16-37.039-35.394-36.35l-69.1,2.354
				c-20.306,0.692-37.333,18.132-38.015,38.957l-1.511,46.109c-31.772,6.163-62.62,15.604-92.202,27.922l-21.091-38.841
				c-9.62-17.718-32.05-23.121-50.106-12.057l-61.647,37.78c-18.113,11.098-24.963,34.493-15.294,52.234l20.726,38.03
				c-25.806,21.345-49.607,45.218-70.985,71.222l-36.586-20.48c-17.497-9.793-40.531-2.694-51.441,15.871l-37.225,63.338
				c-10.93,18.6-5.56,41.598,11.99,51.363l34.968,19.448c-13.096,31.135-23.201,63.722-29.929,97.364l-39.807,1.728
				C2156.454,2247.227,2139.112,2264.989,2138.424,2286.007z M2299.336,2321.775c6.925-211.267,180.029-389.12,385.503-397.207
				c204.227-8.037,363.33,154.872,356.48,363.825c-6.848,208.954-177.115,386.675-381.418,397.018
				C2454.352,2695.816,2292.412,2533.041,2299.336,2321.775z"/>
		</g>
		<g>
			<path style="opacity:0.75;fill:#F4F7FA;" d="M2134.934,1384.667c0-80.088-68.185-145.013-152.296-145.013
				s-152.296,64.925-152.296,145.013c0,48.604,25.114,91.621,63.66,117.932c16.353,11.162,26.27,29.56,26.27,49.36v11.097
				c0,24.112,19.547,43.658,43.658,43.658h37.416c24.112,0,43.658-19.546,43.658-43.658v-11.097c0-19.799,9.917-38.197,26.27-49.36
				C2109.819,1476.288,2134.934,1433.271,2134.934,1384.667z"/>
			
				<linearGradient id="SVGID_00000096045709247200665680000011341835649277720219_" gradientUnits="userSpaceOnUse" x1="1979.4657" y1="1696.7482" x2="1982.1705" y2="1675.1099">
				<stop  offset="0.0036" style="stop-color:#26264F"/>
				<stop  offset="1" style="stop-color:#444B8C"/>
			</linearGradient>
			
				<ellipse style="fill:url(#SVGID_00000096045709247200665680000011341835649277720219_);" cx="1982.638" cy="1671.37" rx="33.783" ry="17.886"/>
			
				<linearGradient id="SVGID_00000105385895347510791930000012076580474908916367_" gradientUnits="userSpaceOnUse" x1="1968.3416" y1="1677.0267" x2="1995.3896" y2="1628.3402">
				<stop  offset="0.0036" style="stop-color:#26264F"/>
				<stop  offset="1" style="stop-color:#444B8C"/>
			</linearGradient>
			<path style="fill:url(#SVGID_00000105385895347510791930000012076580474908916367_);" d="M1937.752,1639.419v18.265
				c0,6.18,3.517,11.842,9.094,14.502c7.744,3.693,20.618,7.746,39.33,7.266c15.18-0.389,25.078-2.868,31.371-5.472
				c6.079-2.516,9.976-8.528,9.976-15.107v-10.106L1937.752,1639.419z"/>
			
				<linearGradient id="SVGID_00000028318744582247307030000015920326262958732693_" gradientUnits="userSpaceOnUse" x1="1937.7524" y1="1653.9542" x2="2027.5236" y2="1653.9542">
				<stop  offset="0.0036" style="stop-color:#26264F"/>
				<stop  offset="1" style="stop-color:#444B8C"/>
			</linearGradient>
			<path style="opacity:0.3;fill:url(#SVGID_00000028318744582247307030000015920326262958732693_);" d="M1937.752,1655.417
				c1.368,1.33,2.953,2.458,4.732,3.307c8.687,4.143,65.591,13.4,79.317,8.243c1.783-0.67,3.386-1.566,4.791-2.647
				c0.601-1.725,0.931-3.561,0.931-5.448v-10.106l-89.771-9.348V1655.417z"/>
			
				<linearGradient id="SVGID_00000145057072889776144060000018005969560321321892_" gradientUnits="userSpaceOnUse" x1="1970.9164" y1="1663.7225" x2="1997.6263" y2="1612.3313">
				<stop  offset="0.0036" style="stop-color:#26264F"/>
				<stop  offset="1" style="stop-color:#444B8C"/>
			</linearGradient>
			<path style="fill:url(#SVGID_00000145057072889776144060000018005969560321321892_);" d="M1941.738,1626.991
				c-5.056-0.526-9.456,3.439-9.456,8.522v0.518c0,6.933,3.945,13.285,10.203,16.269c8.687,4.143,65.591,13.4,79.317,8.242
				c6.91-2.596,11.192-8.529,11.192-15.91v-0.417c0-4.389-3.316-8.068-7.681-8.522L1941.738,1626.991z"/>
			
				<linearGradient id="SVGID_00000108299527913533909430000012855879642652949415_" gradientUnits="userSpaceOnUse" x1="1933.7303" y1="1638.8243" x2="2031.5012" y2="1638.8243">
				<stop  offset="0.0036" style="stop-color:#26264F"/>
				<stop  offset="1" style="stop-color:#444B8C"/>
			</linearGradient>
			<path style="opacity:0.3;fill:url(#SVGID_00000108299527913533909430000012855879642652949415_);" d="M2025.313,1635.694
				l-83.575-8.703c-3.297-0.343-6.307,1.23-8.007,3.772c1.679,3.956,4.736,7.265,8.755,9.182
				c8.687,4.143,68.015,14.607,79.317,9.281c4.4-2.074,7.85-5.573,9.699-9.828
				C2030.124,1637.378,2027.907,1635.964,2025.313,1635.694z"/>
			
				<linearGradient id="SVGID_00000048494291779194127710000009238598380788603293_" gradientUnits="userSpaceOnUse" x1="1932.2819" y1="1621.1588" x2="2032.9941" y2="1621.1588">
				<stop  offset="0.0036" style="stop-color:#26264F"/>
				<stop  offset="1" style="stop-color:#444B8C"/>
			</linearGradient>
			<path style="fill:url(#SVGID_00000048494291779194127710000009238598380788603293_);" d="M1938.468,1597.399
				c-3.417,0-6.186,2.77-6.186,6.186v14.305c0,6.933,3.945,13.285,10.203,16.269c8.687,4.143,68.015,14.607,79.317,9.281
				c6.677-3.147,11.192-9.567,11.192-16.948v-22.907c0-3.417-2.77-6.186-6.186-6.186H1938.468z"/>
			
				<linearGradient id="SVGID_00000012458026748483781540000002181342328373054607_" gradientUnits="userSpaceOnUse" x1="1980.1368" y1="1613.5621" x2="1990.0544" y2="1567.1298">
				<stop  offset="0.0036" style="stop-color:#26264F"/>
				<stop  offset="1" style="stop-color:#444B8C"/>
			</linearGradient>
			
				<ellipse style="fill:url(#SVGID_00000012458026748483781540000002181342328373054607_);" cx="1982.638" cy="1601.852" rx="49.111" ry="11.611"/>
			
				<linearGradient id="SVGID_00000005241668957698545580000003641992856762712497_" gradientUnits="userSpaceOnUse" x1="1961.0911" y1="1354.4755" x2="2157.8547" y2="1666.8632">
				<stop  offset="0" style="stop-color:#FCB148"/>
				<stop  offset="0.0521" style="stop-color:#FDBA46"/>
				<stop  offset="0.1424" style="stop-color:#FFC244"/>
				<stop  offset="0.3183" style="stop-color:#FFC444"/>
				<stop  offset="0.4849" style="stop-color:#FDB946"/>
				<stop  offset="0.7754" style="stop-color:#F99C4D"/>
				<stop  offset="0.8658" style="stop-color:#F8924F"/>
				<stop  offset="1" style="stop-color:#F8924F"/>
			</linearGradient>
			<path style="fill:url(#SVGID_00000005241668957698545580000003641992856762712497_);" d="M2134.934,1384.667
				c0-80.088-68.185-145.013-152.296-145.013s-152.296,64.925-152.296,145.013c0,48.604,25.114,91.621,63.66,117.932
				c16.353,11.162,26.27,29.56,26.27,49.36v11.097c0,24.112,19.547,43.658,43.658,43.658h37.416
				c24.112,0,43.658-19.546,43.658-43.658v-11.097c0-19.799,9.917-38.197,26.27-49.36
				C2109.819,1476.288,2134.934,1433.271,2134.934,1384.667z"/>
			<ellipse style="opacity:0.5;fill:#F4F7FA;" cx="1982.638" cy="1592.697" rx="35.935" ry="8.496"/>
			<g>
				
					<linearGradient id="SVGID_00000181806147857746570790000015898767155736831366_" gradientUnits="userSpaceOnUse" x1="1925.1448" y1="1595.0103" x2="1965.266" y2="1477.8024">
					<stop  offset="0.494" style="stop-color:#EBEFF2"/>
					<stop  offset="1" style="stop-color:#FFFFFF"/>
				</linearGradient>
				<path style="fill:url(#SVGID_00000181806147857746570790000015898767155736831366_);" d="M1973.273,1597.889
					c-1.029,0-1.922-0.764-2.057-1.812l-26.436-205.59c-0.146-1.138,0.657-2.178,1.795-2.324c1.14-0.153,2.178,0.657,2.324,1.795
					l26.437,205.589c0.146,1.138-0.658,2.178-1.795,2.324C1973.451,1597.884,1973.362,1597.889,1973.273,1597.889z"/>
				
					<linearGradient id="SVGID_00000111173894058056247420000009024546285594684585_" gradientUnits="userSpaceOnUse" x1="1963.5018" y1="1608.1401" x2="2003.6232" y2="1490.9321">
					<stop  offset="0.494" style="stop-color:#EBEFF2"/>
					<stop  offset="1" style="stop-color:#FFFFFF"/>
				</linearGradient>
				<path style="fill:url(#SVGID_00000111173894058056247420000009024546285594684585_);" d="M1989.694,1597.889
					c-0.088,0-0.177-0.005-0.267-0.017c-1.138-0.146-1.941-1.186-1.795-2.324l26.437-205.589c0.146-1.138,1.186-1.949,2.325-1.795
					c1.138,0.146,1.941,1.186,1.795,2.324l-26.437,205.59C1991.616,1597.124,1990.723,1597.889,1989.694,1597.889z"/>
				
					<linearGradient id="SVGID_00000122693245198302946590000007946891348997608094_" gradientUnits="userSpaceOnUse" x1="1911.1736" y1="1590.2275" x2="1951.2948" y2="1473.0198">
					<stop  offset="0.494" style="stop-color:#EBEFF2"/>
					<stop  offset="1" style="stop-color:#FFFFFF"/>
				</linearGradient>
				<path style="fill:url(#SVGID_00000122693245198302946590000007946891348997608094_);" d="M2011.224,1390.321
					c-0.675,0-1.337-0.328-1.736-0.934l-7.296-11.069c-0.075-0.114-0.191-0.18-0.296-0.167c-0.181,0.004-0.258,0.133-0.282,0.174
					l-4.817,8.068c-0.799,1.337-2.198,2.158-3.744,2.196c-1.536,0.05-2.988-0.713-3.855-2.011l-6.614-9.917
					c-0.072-0.107-0.168-0.163-0.286-0.164c-0.141,0.026-0.206,0.05-0.277,0.151l-5.811,8.399c-0.839,1.214-2.215,1.94-3.681,1.943
					c-0.003,0-0.006,0-0.009,0c-1.465,0-2.844-0.722-3.689-1.934l-8.377-12.001c-0.075-0.109-0.182-0.146-0.296-0.157
					c-0.12,0.005-0.213,0.066-0.279,0.18l-7.646,13.199c-0.575,0.992-1.846,1.33-2.838,0.755c-0.993-0.575-1.331-1.846-0.756-2.838
					l7.646-13.199c0.778-1.342,2.16-2.181,3.699-2.246c1.526-0.078,2.988,0.657,3.876,1.93l8.376,12.001
					c0.073,0.103,0.168,0.157,0.283,0.157h0c0.112-0.001,0.205-0.052,0.275-0.152l5.811-8.399c0.85-1.228,2.25-1.959,3.728-1.942
					c1.488,0.013,2.874,0.766,3.706,2.014l6.614,9.916c0.074,0.111,0.186,0.205,0.296,0.163c0.18-0.004,0.256-0.132,0.281-0.173
					l4.817-8.068c0.802-1.342,2.206-2.163,3.757-2.197c1.535-0.034,2.994,0.726,3.856,2.033l7.296,11.069
					c0.631,0.957,0.366,2.245-0.591,2.877C2012.013,1390.21,2011.616,1390.321,2011.224,1390.321z"/>
			</g>
			
				<linearGradient id="SVGID_00000157287810071020884970000002050901569635912336_" gradientUnits="userSpaceOnUse" x1="1967.996" y1="1284.0605" x2="1928.7762" y2="1607.2841">
				<stop  offset="0" style="stop-color:#FCB148"/>
				<stop  offset="0.0521" style="stop-color:#FDBA46"/>
				<stop  offset="0.1424" style="stop-color:#FFC244"/>
				<stop  offset="0.3183" style="stop-color:#FFC444"/>
				<stop  offset="0.4849" style="stop-color:#FDB946"/>
				<stop  offset="0.7754" style="stop-color:#F99C4D"/>
				<stop  offset="0.8658" style="stop-color:#F8924F"/>
				<stop  offset="1" style="stop-color:#F8924F"/>
			</linearGradient>
			<path style="opacity:0.3;fill:url(#SVGID_00000157287810071020884970000002050901569635912336_);" d="M1985.402,1499.048
				c3.263-55.893,97.488-68.974,97.084-118.889c-0.249-30.743-37.691-53.574-45.686-58.146
				c-58.914-33.696-131.429,5.215-146.405-22.324c-3.729-6.857-1.981-14.321-0.985-18.571c1.505-6.424,4.912-12.408,9.966-17.881
				c-41.566,25.893-69.033,70.604-69.033,121.43c0,48.604,25.114,91.621,63.66,117.932c16.353,11.163,26.27,29.561,26.27,49.36
				v11.097c0,24.112,19.547,43.658,43.658,43.658h37.416c24.112,0,43.658-19.546,43.658-43.658v-8.873
				c-5.15,3.947-11.064,6.699-17.55,6.646C2004.951,1560.644,1983.778,1526.862,1985.402,1499.048z"/>
			<ellipse style="opacity:0.44;fill:#F4F7FA;" cx="1985.074" cy="1390.321" rx="131.053" ry="126.387"/>
		</g>
		<g>
			<defs>
				<path id="SVGID_00000141452772348583385950000007328918172038854809_" d="M3259.247,2116.219l-451.008-744.07l-658.867,249.731
					l-403.732,41.426l87.179,578.88l531.723,302.482l0,0c64.924,91.132,172.321,146.971,295.361,140.743
					c118.393-5.994,225.347-68.201,295.703-160.116c1.918-0.505,2.964-0.781,2.964-0.781L3259.247,2116.219z"/>
			</defs>
			<clipPath id="SVGID_00000128483103489433537920000002819712191456460215_">
				<use xlink:href="#SVGID_00000141452772348583385950000007328918172038854809_"  style="overflow:visible;"/>
			</clipPath>
			<g style="clip-path:url(#SVGID_00000128483103489433537920000002819712191456460215_);">
				
					<linearGradient id="SVGID_00000163782948246727062560000014471028626229826475_" gradientUnits="userSpaceOnUse" x1="5214.9321" y1="1689.2551" x2="4919.7949" y2="2224.1907" gradientTransform="matrix(-1 0 0 1 7152.6431 0)">
					<stop  offset="0" style="stop-color:#FFC444"/>
					<stop  offset="0.9964" style="stop-color:#F36F56"/>
				</linearGradient>
				<path style="fill:url(#SVGID_00000163782948246727062560000014471028626229826475_);" d="M2011.129,1814.763
					c-9.141-26.348-5.473-40.787,0-49.189c7.632-11.718,25.119-21.434,57.388-45.09c2.111-1.547,5.76-4.311,5.298-5.829
					c-1.142-3.756-18.707-1.813-33.992,5.829c-22.153,11.077-26.768,11.931-39.937,15.853c-23.274,6.932-43.737,1.143-74.838-7.655
					c-12.826-3.628-30.803-9.771-51.239-20.495c0,0-22.545-10.248-28.694,0l32.793,16.396c0,0-28.694-12.297-45.09-4.099
					l57.388,24.595c0,0-43.041-12.297-45.09-4.099c27.972,19.954,52.647,26.766,71.735,28.694
					c29.376,2.967,51.488-5.027,59.437,6.149c6.417,9.022-0.246,25.124-8.198,38.942H2011.129z"/>
				
					<linearGradient id="SVGID_00000037679501891121763020000001801722923173284274_" gradientUnits="userSpaceOnUse" x1="5007.4878" y1="2043.183" x2="4728.7485" y2="2632.0891" gradientTransform="matrix(-1 0 0 1 7152.6431 0)">
					<stop  offset="0" style="stop-color:#AA80F9"/>
					<stop  offset="0.9964" style="stop-color:#6165D7"/>
				</linearGradient>
				<path style="fill:url(#SVGID_00000037679501891121763020000001801722923173284274_);" d="M2396.446,2007.422
					c-25.568-38.302-56.968-61.249-79.701-75.089c-8.207,3.62-20.82,9.668-35.21,18.762c-41.528,26.244-46.091,45.142-81.334,67.026
					c-18.69,11.606-41.839,25.979-71.558,24.02c-34.21-2.256-57.657-24.871-67.401-34.271
					c-66.842-64.474-40.693-186.616-37.815-199.255c-25.278-0.683-50.556-1.367-75.834-2.05
					c-13.296,23.317-86.57,171.998-32.793,321.781c77.02,214.521,390.336,216.37,485.062,117.613
					C2456.274,2187.146,2455.942,2096.549,2396.446,2007.422z"/>
				
					<linearGradient id="SVGID_00000076580401175726116330000014362476752735423624_" gradientUnits="userSpaceOnUse" x1="-5297.3945" y1="2474.9089" x2="-5573.293" y2="3057.8132" gradientTransform="matrix(1 0 0 1 7811.5283 0)">
					<stop  offset="0" style="stop-color:#AA80F9"/>
					<stop  offset="0.9964" style="stop-color:#6165D7"/>
				</linearGradient>
				<path style="fill:url(#SVGID_00000076580401175726116330000014362476752735423624_);" d="M2882.671,2647.663
					c8.543-12.131,23.605-37.248,35.182-69.94c31.311-88.414,14.302-167.754,10.085-190.23
					c-13.271-70.722-16.013-197.193,22.311-440.573c4.604-29.24-14.731-56.808-43.753-62.63
					c-80.489-16.146-186.703-27.921-309.883-16.536c-115.194,10.646-210.27,38.315-279.868,64.578
					c-1.822,127.368,8.499,228.391,18.11,296.545c15.403,109.228,30.401,144.091,32.157,237.484
					c2.643,140.547-29.468,160.348-4.993,203.939C2432.361,2795.583,2784.58,2786.96,2882.671,2647.663z"/>
				
					<linearGradient id="SVGID_00000031177337359178586770000004497577499001331645_" gradientUnits="userSpaceOnUse" x1="-5235.0825" y1="1977.7246" x2="-4909.1558" y2="1432.938" gradientTransform="matrix(1 0 0 1 7811.5283 0)">
					<stop  offset="0" style="stop-color:#FFC444"/>
					<stop  offset="0.9964" style="stop-color:#F36F56"/>
				</linearGradient>
				<path style="fill:url(#SVGID_00000031177337359178586770000004497577499001331645_);" d="M2647.467,1718.32
					c4.173,39.624,8.346,79.247,12.52,118.87c1.131,10.735,9.737,19.148,20.495,20.035c42.586,3.51,85.172,7.02,127.758,10.53
					l-236.172,72.409l-108.265-51.63c33.033-10.236,66.068-20.473,99.101-30.71c8.486-2.63,14.625-10.013,15.661-18.836
					c2.875-24.468,5.749-48.936,8.624-73.404L2647.467,1718.32z"/>
				
					<linearGradient id="SVGID_00000063619726695690083670000016377809374220988822_" gradientUnits="userSpaceOnUse" x1="-5257.3115" y1="1766.7041" x2="-5006.9619" y2="1313.2418" gradientTransform="matrix(1 0 0 1 7811.5283 0)">
					<stop  offset="0" style="stop-color:#FFC444"/>
					<stop  offset="0.9964" style="stop-color:#F36F56"/>
				</linearGradient>
				<path style="fill:url(#SVGID_00000063619726695690083670000016377809374220988822_);" d="M2670.522,1699.885
					c-26.034,59.743-91.18,109.188-124.844,94.519c-33.663-14.669-30.081-88.988-4.048-148.731
					c26.034-59.743,75.893-82.524,109.556-67.855C2684.851,1592.487,2696.556,1640.141,2670.522,1699.885z"/>
				
					<linearGradient id="SVGID_00000042695973806064454870000017569326266046000537_" gradientUnits="userSpaceOnUse" x1="-5112.2778" y1="1460.2019" x2="-5253.9854" y2="1710.5519" gradientTransform="matrix(1 0 0 1 7811.5283 0)">
					<stop  offset="0" style="stop-color:#444B8C"/>
					<stop  offset="0.9964" style="stop-color:#26264F"/>
				</linearGradient>
				<path style="fill:url(#SVGID_00000042695973806064454870000017569326266046000537_);" d="M2626.743,1694.468
					c3.283,2.46,16.104-15.118,23.211-11.98c5.995,2.648,7.618,19.905,0.35,31.741c-6.186,10.075-14.423,9.069-16.823,16.927
					c-3.946,12.921,13.262,32.222,19.701,29.95c4.131-1.458,0.704-10.687,4.718-21.227c7.89-20.717,33.796-18.333,54.947-34.18
					c33.262-24.92,42.321-85.606,22.49-108.324c-7.537-8.634-15.989-8.052-26.233-21.956c-11.091-15.053-6.247-22.61-14.78-32.288
					c-14.479-16.422-46.26-14.892-66.345-8.823c-25.269,7.636-27.102,20.969-44.013,19.985c-20.028-1.164-22.917-20.182-46.8-23.677
					c-1.375-0.202-23.67-3.118-40.46,11.382c-21.804,18.832-16.465,51.612-15.708,56.259c4.837,29.704,29.079,56.49,55.896,62.518
					c5.645,1.269,4.503,0.066,61.299-1.305c18.764-0.453,30.106-0.59,33.882,6.011
					C2637.527,1675.011,2623.44,1691.993,2626.743,1694.468z"/>
				
					<linearGradient id="SVGID_00000173127661617587356750000015711983443079900833_" gradientUnits="userSpaceOnUse" x1="-5180.4321" y1="2879.2283" x2="-4623.7168" y2="1426.929" gradientTransform="matrix(1 0 0 1 7811.5283 0)">
					<stop  offset="0" style="stop-color:#AA80F9"/>
					<stop  offset="0.9964" style="stop-color:#6165D7"/>
				</linearGradient>
				<path style="opacity:0.3;fill:url(#SVGID_00000173127661617587356750000015711983443079900833_);" d="M2863.553,2105.906
					c-30.143,13.676-46.389,31.003-55.689,46.977c-35.462,60.912,19.087,120.625-20.08,196.783
					c-26.955,52.412-62.683,43.367-80.32,92.368c-22.625,62.86,26.611,104.309,24.096,168.671
					c-1.268,32.454-15.797,72.994-65.056,119.318c64.655-17.837,120.856-48.753,151.784-92.673
					c8.543-12.131,23.605-37.248,35.182-69.94c31.312-88.414,14.303-167.754,10.085-190.231
					C2853.784,2325.113,2849.723,2242.817,2863.553,2105.906z"/>
				
					<linearGradient id="SVGID_00000088829385863230260060000010806517216005337762_" gradientUnits="userSpaceOnUse" x1="-4165.2554" y1="2600.7722" x2="-4443.9956" y2="3189.6807" gradientTransform="matrix(0.9718 0.2358 -0.2358 0.9718 7300.9907 1027.3979)">
					<stop  offset="0" style="stop-color:#AA80F9"/>
					<stop  offset="0.9964" style="stop-color:#6165D7"/>
				</linearGradient>
				<path style="fill:url(#SVGID_00000088829385863230260060000010806517216005337762_);" d="M2844.903,2701.047
					c114.195-24.612,159.284-198.968,182.564-288.787c18.302-70.612,95.177-367.211-56.999-491.014
					c-26.559-21.608-54.056-33.038-74.623-39.467c-22.754,7.336-80.581,29.486-113.122,86.727
					c-18.428,32.416-23.588,67.012-21.456,116.009c5.519,126.785,51.602,160.187,64.046,246.063
					c25.315,174.7-125.871,288.472-76.073,351.914C2775.012,2715.325,2839.04,2702.31,2844.903,2701.047z"/>
			</g>
		</g>
		<g>
			<defs>
				<path id="SVGID_00000137811412224711433890000002158710757564121264_" d="M1667.323,560.206L847.727,437.129
					c0,0-399.424,27.867-406.39,30.189c0,0-65.022,650.223-65.022,659.512c0,9.289,380.143,525.135,380.145,525.136
					c-5.23,27.404-8.436,55.43-9.37,83.917c-9.351,285.274,209.318,505.07,486.873,491.019
					c211.529-10.708,396.027-154.3,474.756-347.892l0.002,0l117.236-208.781l94.766-736.145L1667.323,560.206z"/>
			</defs>
			<clipPath id="SVGID_00000114784066520238578750000004893100738024708484_">
				<use xlink:href="#SVGID_00000137811412224711433890000002158710757564121264_"  style="overflow:visible;"/>
			</clipPath>
			<g style="clip-path:url(#SVGID_00000114784066520238578750000004893100738024708484_);">
				
					<linearGradient id="SVGID_00000099622647331363867870000007157377290523229059_" gradientUnits="userSpaceOnUse" x1="-5569.8179" y1="-738.3713" x2="-5840.459" y2="73.555" gradientTransform="matrix(0.9488 -0.316 0.316 0.9488 7220.3066 -94.4625)">
					<stop  offset="0" style="stop-color:#AB316D"/>
					<stop  offset="1" style="stop-color:#792D3D"/>
				</linearGradient>
				<path style="fill:url(#SVGID_00000099622647331363867870000007157377290523229059_);" d="M1647.179,1275.411
					c6.363-25.053,30.471-116.678,46.063-157.237c21.591-56.162,54.574-125.017,62.317-122.256
					c4.543,1.62-0.608,27.547-1.362,31.339c-6.792,34.176-20.237,38.884-18.137,57.695c2.246,20.114,18.408,21.801,19.534,43.952
					c0.916,18.009-9.005,31.87-10.563,33.986c-11.014,14.954-22.956,13.23-34.472,25.338
					c-18.537,19.491-23.319,79.776-23.307,106.984L1647.179,1275.411z"/>
				
					<linearGradient id="SVGID_00000139252798868227476890000015151366984710977409_" gradientUnits="userSpaceOnUse" x1="4148.1152" y1="1578.8381" x2="4691.4746" y2="1578.8381" gradientTransform="matrix(-1 0 0 1 5936.8584 0)">
					<stop  offset="0" style="stop-color:#FF9085"/>
					<stop  offset="1" style="stop-color:#FB6FBB"/>
				</linearGradient>
				<path style="fill:url(#SVGID_00000139252798868227476890000015151366984710977409_);" d="M1646.604,1257.119
					c16.012,6.761,32.025,13.522,48.037,20.283c21.592,36.75,50.231,93.817,68.177,167.936
					c19.314,79.767,63.339,261.592-40.628,371.118c-79.29,83.53-205.678,84.129-253.74,84.101
					c-44.45-0.026-84.041,0.28-121.808-21.093c-82.597-46.745-116.361-173.649-95.006-317.043
					c86.194,81.467,189.37,112.309,251.926,75.791c49.194-28.718,71.68-98.18,81.273-127.719
					c14.265-43.926,9.857-64.459,22.273-125.275C1618.586,1328.994,1634.928,1284.947,1646.604,1257.119z"/>
				<g style="opacity:0.3;">
					
						<linearGradient id="SVGID_00000025423934559478228970000015825497550352343444_" gradientUnits="userSpaceOnUse" x1="4148.1152" y1="1584.7141" x2="4691.4736" y2="1584.7141" gradientTransform="matrix(-1 0 0 1 5936.8584 0)">
						<stop  offset="0" style="stop-color:#FF9085"/>
						<stop  offset="1" style="stop-color:#FB6FBB"/>
					</linearGradient>
					<path style="fill:url(#SVGID_00000025423934559478228970000015825497550352343444_);" d="M1528.996,1819.439
						c26.204-35.334,12.461-76.098,54.696-117.206c53.405-51.98,116.919-27.234,142.6-70.323
						c20.962-35.169-6.377-76.78-27.348-142.6c-16.266-51.054-31.003-123.957-24.508-220.439c6.735,2.844,13.469,5.687,20.204,8.531
						c21.592,36.75,50.231,93.817,68.177,167.936c19.314,79.767,63.339,261.592-40.628,371.118
						c-79.29,83.53-205.678,84.129-253.74,84.101c-44.45-0.026-84.041,0.28-121.808-21.093
						c-10.452-5.916-20.115-13.124-28.991-21.478C1451.004,1876.809,1505.473,1851.158,1528.996,1819.439z"/>
				</g>
				
					<linearGradient id="SVGID_00000181058970589328173240000010050061317493934741_" gradientUnits="userSpaceOnUse" x1="4535.9849" y1="1908.5682" x2="5138.0298" y2="1908.5682" gradientTransform="matrix(-1 0 0 1 5936.8584 0)">
					<stop  offset="0" style="stop-color:#FF9085"/>
					<stop  offset="1" style="stop-color:#FB6FBB"/>
				</linearGradient>
				<path style="fill:url(#SVGID_00000181058970589328173240000010050061317493934741_);" d="M799.023,2208.247
					c-0.908-44.386-3.288-289.302,115.288-465.422c27.18-40.37,75.268-111.797,167.595-159.055
					c35.99-18.422,68.448-27.923,90.736-33.092c26.331,3.914,52.663,7.829,78.994,11.743c25.203,22.966,59.439,58.983,89.668,109.95
					c19.141,32.272,50.819,85.68,58.155,154.622c8.55,80.346-23.385,112.014-49.615,237.145
					c-14.225,67.864-18.714,124.773-20.282,162.258c-91.092,7.828-182.184,15.656-273.276,23.485
					c-1.441-43.178-5.224-91.198-12.81-143.042c-7.85-53.653-18.433-102.25-29.89-145.178
					c-12.244,48.781-23.027,105.756-28.822,169.73c-4.011,44.277-5.044,85.423-4.27,122.761
					c-11.066,4.361-73.377,27.712-133.435-4.271C823.602,2237.387,808.235,2220.58,799.023,2208.247z"/>
				
					<linearGradient id="SVGID_00000047047005036401811150000005884990806149492147_" gradientUnits="userSpaceOnUse" x1="2630.1157" y1="1437.0614" x2="3783.9116" y2="1437.0614" gradientTransform="matrix(-0.853 -0.522 -0.522 0.853 4480.771 1403.0635)">
					<stop  offset="0" style="stop-color:#311944"/>
					<stop  offset="1" style="stop-color:#6B3976"/>
				</linearGradient>
				<path style="fill:url(#SVGID_00000047047005036401811150000005884990806149492147_);" d="M1227.635,1467.254
					c77.748-10.531,116.623-15.797,142.813-36.897c57.229-46.106,69.712-130.346,59.325-189.657
					c-14.577-83.236-77.547-136.526-117.397-170.25c-51.204-43.332-62.938-32.219-82.34-59.701
					c-53.626-75.956,33.889-163.852,14.535-284.263c-21.354-132.857-157.69-211.23-192.933-229.686
					c-187.796-98.346-375.987,1.186-395.092,11.709C479.53,606.002,409.628,811.547,432.962,968.815
					c6.672,44.97,23.743,160.015,102.033,197.532c75.391,36.128,143.54-30.309,250.074,17.151
					c14.884,6.63,59.987,26.724,94.998,72.422c39.538,51.608,28.88,87.154,72.296,140.158
					c35.203,42.977,76.979,62.054,85.396,65.765C1090.696,1485.18,1137.075,1479.521,1227.635,1467.254z"/>
				<g style="opacity:0.3;">
					
						<linearGradient id="SVGID_00000096031113024199369840000000843121225146128058_" gradientUnits="userSpaceOnUse" x1="2630.1118" y1="1566.058" x2="3783.9146" y2="1566.058" gradientTransform="matrix(-0.853 -0.522 -0.522 0.853 4480.771 1403.0635)">
						<stop  offset="0" style="stop-color:#311944"/>
						<stop  offset="1" style="stop-color:#6B3976"/>
					</linearGradient>
					<path style="fill:url(#SVGID_00000096031113024199369840000000843121225146128058_);" d="M617.845,532.686
						C496.724,689.124,478.35,760.948,501.304,791.889c32.117,43.292,137.445-3.775,190.446,59.285
						c47.671,56.719-8.007,129.936,36.536,180.753c56.304,64.233,172.933-21.187,251.695,36.846
						c93.742,69.07,3.186,245.079,95.176,342.218c27.862,29.422,75.495,54.728,162.051,54.965c-3.132,0.425-6.306,0.856-9.574,1.298
						c-90.559,12.266-136.939,17.926-189.876-5.411c-8.417-3.711-50.193-22.788-85.396-65.765
						c-43.416-53.004-32.758-88.551-72.296-140.158c-35.01-45.698-80.113-65.791-94.997-72.422
						c-106.535-47.46-174.684,18.977-250.074-17.151c-78.291-37.517-95.361-152.562-102.033-197.532
						C411.411,823.563,469.4,637.139,617.845,532.686z"/>
				</g>
				
					<linearGradient id="SVGID_00000000916245293134714160000003028180658855690933_" gradientUnits="userSpaceOnUse" x1="4780.1924" y1="1737.2793" x2="4768.4722" y2="1359.2913" gradientTransform="matrix(-1 0 0 1 5936.8584 0)">
					<stop  offset="0" style="stop-color:#AB316D"/>
					<stop  offset="1" style="stop-color:#792D3D"/>
				</linearGradient>
				<path style="fill:url(#SVGID_00000000916245293134714160000003028180658855690933_);" d="M1238.588,1431.852
					c0,0,2.217,57.046,0,95.341c-1.622,28.034,22.62,44.002,22.62,44.002s13.311,22.81-58.677,26.622
					c-71.987,3.812-142.037,0-142.037,0s70.383-46.813,86.462-59.253c16.079-12.44,24.706-105.447,14.41-164.354L1238.588,1431.852z
					"/>
				
					<linearGradient id="SVGID_00000103943638132891818390000012369519930427737245_" gradientUnits="userSpaceOnUse" x1="2717.8564" y1="1813.8732" x2="2824.8015" y2="1463.7371" gradientTransform="matrix(-0.853 -0.522 -0.522 0.853 4480.771 1403.0635)">
					<stop  offset="0" style="stop-color:#AB316D"/>
					<stop  offset="1" style="stop-color:#792D3D"/>
				</linearGradient>
				<path style="fill:url(#SVGID_00000103943638132891818390000012369519930427737245_);" d="M1348.264,1356.777
					c0,0-14.858,94.473-42.882,139.899s-75.848,52.076-93.114,26.056s-24.672-95.629-24.672-95.629s-12.688,9.757-23.407-14.323
					c-10.719-24.08,19.33-104.078,42.915-61.729c0,0,6.578-23.553,33.265-47.221
					C1267.056,1280.161,1368.941,1299.331,1348.264,1356.777z"/>
				<g style="opacity:0.3;">
					
						<linearGradient id="SVGID_00000003080963617242505180000012499375129311722370_" gradientUnits="userSpaceOnUse" x1="4535.9849" y1="2038.5911" x2="5138.0303" y2="2038.5911" gradientTransform="matrix(-1 0 0 1 5936.8584 0)">
						<stop  offset="0" style="stop-color:#FF9085"/>
						<stop  offset="1" style="stop-color:#FB6FBB"/>
					</linearGradient>
					<path style="fill:url(#SVGID_00000003080963617242505180000012499375129311722370_);" d="M952.737,2094.872
						c31.754-49.831-16.662-93.031,3.907-171.902c17.551-67.302,74.71-119.838,95.718-111.345
						c29.027,11.734-28.009,133.086,29.301,189.482c38.045,37.438,87.635,8.026,138.693,41.022
						c33.67,21.759,67.504,70.39,70.146,187.621c-78.072,6.709-156.143,13.419-234.215,20.128
						c-1.441-43.178-5.224-91.198-12.81-143.042c-7.85-53.654-18.433-102.25-29.89-145.178
						c-12.244,48.781-23.028,105.756-28.822,169.73c-4.01,44.277-5.044,85.423-4.27,122.761
						c-11.067,4.361-73.377,27.713-133.435-4.27c-3.353-1.786-6.523-3.668-9.551-5.604c1.537-25.859,8.169-55.404,27.324-81.033
						C895.962,2121.59,929.763,2130.922,952.737,2094.872z"/>
				</g>
			</g>
		</g>
		<g>
			<defs>
				<path id="SVGID_00000119810617259642920120000010916089190222155172_" d="M2248.401,2606.086
					c0-242.397-225.094-438.9-502.762-438.9c-277.667,0-502.76,196.503-502.76,438.9c0,59.313,13.506,115.866,37.934,167.476
					c-4.084,19.406-6.56,39.302-7.249,59.546c-6.428,188.728,143.875,334.136,334.65,324.841
					c102.178-4.978,195.165-53.389,260.209-126.17C2086.735,2983.941,2248.401,2811.505,2248.401,2606.086z"/>
			</defs>
			<clipPath id="SVGID_00000005265400196891528700000000922372989717998523_">
				<use xlink:href="#SVGID_00000119810617259642920120000010916089190222155172_"  style="overflow:visible;"/>
			</clipPath>
			<g style="clip-path:url(#SVGID_00000005265400196891528700000000922372989717998523_);">
				<g>
					<path style="fill:#26264F;" d="M2037.014,2882.561l118.897-278.513c5.94-13.915-2.037-29.833-16.739-33.404l-217.793-52.893
						c-11.771-2.858-23.862,3.32-28.443,14.533l-109.359,267.686c-5.446,13.33,1.732,28.458,15.501,32.672l208.255,63.719
						C2019.299,2900.022,2032.1,2894.071,2037.014,2882.561z"/>
					
						<linearGradient id="SVGID_00000138548117148535970020000000320619825114179461_" gradientUnits="userSpaceOnUse" x1="-984.3193" y1="2714.6599" x2="-1089.9099" y2="2506.332" gradientTransform="matrix(-1 0 0 1 975.4035 0)">
						<stop  offset="0" style="stop-color:#AA80F9"/>
						<stop  offset="0.9964" style="stop-color:#6165D7"/>
					</linearGradient>
					<path style="fill:url(#SVGID_00000138548117148535970020000000320619825114179461_);" d="M2031.632,2869.166l111.059-260.151
						c5.548-12.998-1.903-27.867-15.636-31.202l-203.435-49.406c-10.994-2.669-22.288,3.101-26.567,13.575l-102.15,250.037
						c-5.087,12.451,1.617,26.582,14.479,30.518l194.525,59.519C2015.085,2885.475,2027.043,2879.916,2031.632,2869.166z"/>
				</g>
				
					<linearGradient id="SVGID_00000091007048799817153930000003343030969598511256_" gradientUnits="userSpaceOnUse" x1="-1121.451" y1="2692.417" x2="-1154.2699" y2="2842.2419" gradientTransform="matrix(-1 0 0 1 975.4035 0)">
					<stop  offset="0" style="stop-color:#FFC444"/>
					<stop  offset="0.9964" style="stop-color:#F36F56"/>
				</linearGradient>
				<path style="fill:url(#SVGID_00000091007048799817153930000003343030969598511256_);" d="M2100.195,2792.69l3.567-32.818
					l18.909-36.047c2.575-4.909,3.92-10.369,3.92-15.913v-35.794l-22.83,52.796c0,0-14.983-13.556-20.691-16.41
					c-5.708-2.854-4.994,8.562-0.713,12.843c4.281,4.281-2.14,39.239,2.14,42.806l-1.427,21.404L2100.195,2792.69z"/>
				
					<linearGradient id="SVGID_00000102519429016179850740000010958934232497037481_" gradientUnits="userSpaceOnUse" x1="1713.6613" y1="2460.4646" x2="1281.7275" y2="3745.8145">
					<stop  offset="0.0036" style="stop-color:#E38DDD"/>
					<stop  offset="1" style="stop-color:#9571F6"/>
				</linearGradient>
				<path style="fill:url(#SVGID_00000102519429016179850740000010958934232497037481_);" d="M1918.978,2583.648
					c-17.754-43.416-55.864-68.385-75.626-81.333c-46.758-30.636-76.693-25.043-184.071-41.38
					c-143.103-21.773-160.233-42.404-208.327-25.684c-63.178,21.964-96.177,79.312-111.299,105.591
					c-76.237,132.489,12.896,199.828-9.989,463.744c-9.346,107.783-33.308,201.448,24.258,256.842
					c12.121,11.664,25.679,17.764,52.795,29.965c107.541,48.388,203.96,40.047,262.55,34.246
					c64.472-6.383,97.057-10.04,114.152-32.819c27.307-36.386-0.803-82.632-5.708-162.667
					c-3.521-57.461,9.543-102.994,35.673-194.058C1874.132,2724.386,1952.995,2666.828,1918.978,2583.648z"/>
				<g>
					<g>
						
							<linearGradient id="SVGID_00000168074403295585805280000018127505955496790189_" gradientUnits="userSpaceOnUse" x1="2772.1367" y1="2582.5945" x2="3008.9048" y2="2880.4792" gradientTransform="matrix(-0.9663 0.2576 0.2576 0.9663 3719.7444 -923.8408)">
							<stop  offset="0" style="stop-color:#FFC444"/>
							<stop  offset="0.9964" style="stop-color:#F36F56"/>
						</linearGradient>
						<path style="fill:url(#SVGID_00000168074403295585805280000018127505955496790189_);" d="M1679.447,2382.838
							c6.514-23.21-4.876-44.705-7.386-49.337c-10.511-19.39-13.203-22.039-18.218-25.398l-6.971-4.301c0,0-0.404-0.162-0.829-0.314
							c-4.473-1.592-19.721-2.055-22.81-1.396c-9.868,2.107-20.374,42.306-17.376,99.14c-0.409,2.165-0.804,4.35-1.185,6.553
							c-1.554,8.975-2.789,17.772-3.743,26.374c-0.913,8.227-12.579,8.039-20.841,7.511c-33.532-2.14-49.941,0.714-51.368,5.708
							c-2.674,9.359,37.1,39.954,86.212,46.837c65.911,0.49,119.527-6.528,113.765-16.907c-2.559-4.607-53.628-17.952-67.99-31.178
							c-13.151-12.112-12.079-24.614-13.161-33.566C1651.532,2410.495,1674.651,2399.938,1679.447,2382.838z"/>
						<path style="fill:#26264F;" d="M1667.323,2287.659c-0.059,17.607-8.355,36.411-12.582,39.433
							c-0.545,0.391-3.617,2.817-6.377,6.966c-0.376,0.564-0.708,1.225-1.003,2.081c-3.857,11.095,13.785,24.152,10.38,29.121
							c-2.47,3.603-14.46-1.216-15.886,1.897c-1.343,2.928,8.622,8.993,7.096,12.501c-1.151,2.649-7.284,0.226-11.151,4.283
							c-1.927,2.021-1.362,3.622-3.404,9.799c-1.155,3.493-2.77,7.316-4.022,9.442c-6.086,10.338-23.319,14.115-26.636,9.978
							c-0.922-1.153-0.13-2.122-1.073-5.991c0,0-0.874-3.586-3.369-7.731c-3.565-5.924-12.17-10.16-20.854-16.413
							c-16.08-11.58-20.451-21.45-21.762-24.785c-0.467-1.188-0.757-2.085-0.966-2.731c-4.182-12.978-4.2-32.041,1.634-43.764
							c9.773-19.638,31.823-10.314,49.869-29.773c20.822-22.449,8.421-53.135,19.72-56.524
							C1639.39,2221.71,1667.431,2255.103,1667.323,2287.659z"/>
						
							<linearGradient id="SVGID_00000013165484288827385870000014251040310678198702_" gradientUnits="userSpaceOnUse" x1="2783.469" y1="2567.6011" x2="3047.823" y2="2900.1921" gradientTransform="matrix(-0.9663 0.2576 0.2576 0.9663 3719.7444 -923.8408)">
							<stop  offset="0" style="stop-color:#FFC444"/>
							<stop  offset="0.9964" style="stop-color:#F36F56"/>
						</linearGradient>
						<path style="fill:url(#SVGID_00000013165484288827385870000014251040310678198702_);" d="M1651.412,2361.122
							c-4.316-5.93-11.899-0.358-11.943,7.313c-0.045,7.671,7.389,15.648,14.6,14.133
							C1661.282,2381.054,1657.219,2369.103,1651.412,2361.122z"/>
					</g>
					<path style="fill:#26264F;" d="M1647.912,2348.287l10.011,13.024c0,0,10.793,15.956,17.094,7.215
						c5.147-7.142,6.481-6.983,6.797-6.684c0.06,0.057,0.076,0.143,0.09,0.138c0.09-0.024-0.755-3.555-1.515-6.659
						c2.665,3.826,6.338,10.032,8.563,18.382c2.161,8.111,4.476,16.794-0.1,25.137c-0.264,0.481-5.305,9.36-14.718,11.509
						c0,0-3.701,0.844-19.341-1.905c0,0,17.095-12.405,17.356-15.352c0.709-8.013-10.405-12.343-18.656-28.77
						C1650.312,2357.986,1648.744,2352.241,1647.912,2348.287z"/>
				</g>
				
					<linearGradient id="SVGID_00000129170448825369889110000007366164548114373509_" gradientUnits="userSpaceOnUse" x1="-965.0211" y1="2826.2671" x2="-585.4647" y2="3188.7004" gradientTransform="matrix(-1 0 0 1 975.4035 0)">
					<stop  offset="0.0036" style="stop-color:#E38DDD"/>
					<stop  offset="1" style="stop-color:#9571F6"/>
				</linearGradient>
				<path style="opacity:0.3;fill:url(#SVGID_00000129170448825369889110000007366164548114373509_);" d="M1613.62,3250.012
					c18.968-37.767-27.51-87.969,2.854-145.544c25.788-48.9,72.636-37.944,94.175-82.76c26.017-54.13-30.564-94.586-28.537-176.936
					c2.422-98.446,87.13-196.993,136.982-188.351c32.254,5.591,36.398,53.71,59.092,106.39
					c-20.081,44.034-43.543,99.2-64.799,173.283c-26.13,91.064-39.194,136.597-35.673,194.058
					c4.905,80.036,33.015,126.281,5.708,162.667c-17.095,22.779-49.68,26.436-114.152,32.819
					c-58.59,5.801-155.009,14.142-262.55-34.246c-13.612-6.125-23.803-10.713-32.115-15.239
					C1542.617,3301.386,1598.577,3279.968,1613.62,3250.012z"/>
				
					<linearGradient id="SVGID_00000055696123817409667350000015005368190162334908_" gradientUnits="userSpaceOnUse" x1="1992.7029" y1="2554.2351" x2="1560.769" y2="3839.5852">
					<stop  offset="0.0036" style="stop-color:#E38DDD"/>
					<stop  offset="1" style="stop-color:#9571F6"/>
				</linearGradient>
				<path style="fill:url(#SVGID_00000055696123817409667350000015005368190162334908_);" d="M2106.616,2786.269
					c-10.464-4.519-20.928-9.037-31.392-13.555c-17.685,18.087-40.242,35.675-59.217,29.964
					c-28.284-8.511-21.212-60.544-55.649-151.965c-39.02-103.584-83.29-130.208-105.591-139.836
					c-12.456-5.378-21.056-8.948-31.392-6.421c-47.562,11.626-63.287,135.567-49.942,228.304
					c7.519,52.25,22.262,154.702,106.305,203.334c11.939,6.908,77.654,44.935,142.69,14.982
					C2077.989,2925.488,2112.321,2859.836,2106.616,2786.269z"/>
			</g>
		</g>
		<g>
			
				<linearGradient id="SVGID_00000045605002611068222790000016832695364338032780_" gradientUnits="userSpaceOnUse" x1="-639.8635" y1="599.6899" x2="-176.8222" y2="1385.1007" gradientTransform="matrix(-0.9994 -0.034 -0.034 0.9994 1519.9918 -127.3651)">
				<stop  offset="0" style="stop-color:#311944"/>
				<stop  offset="1" style="stop-color:#893976"/>
			</linearGradient>
			<path style="fill:url(#SVGID_00000045605002611068222790000016832695364338032780_);" d="M1722.202,830.402l-0.86,25.252
				c-0.252,7.409,5.69,13.14,13.269,12.802l13.772-0.614c1.315,12.003,3.952,23.532,7.782,34.447l-11.633,6.978
				c-6.681,4.007-9.207,12.308-5.639,18.538l12.151,21.215c3.561,6.219,20.758,9.915,27.421,5.899l2.1-8.552
				c7.365,9.202,15.796,17.501,25.126,24.745l-6.365,10.527c-3.979,6.58-2.025,14.633,4.362,17.985l21.737,11.404
				c6.367,3.34,27.037,3.859,30.997-2.71l-6.204-13.253c11.286,3.851,23.208,6.472,35.609,7.732l-0.381,11.188
				c-0.25,7.342,5.585,12.968,13.028,12.57l25.326-1.356c7.416-0.397,13.626-6.652,13.876-13.973l0.38-11.155
				c12.444-2.549,24.47-6.402,35.92-11.404l5.35,9.451c3.471,6.132,24.786,9.286,31.287,5.302l8.898-14.977
				c6.481-3.973,8.932-12.151,5.479-18.273l-5.531-9.804c9.623-8.1,18.42-17.14,26.22-26.955l10.276,5.502
				c6.208,3.324,24.597,5.024,28.462-1.45l2.939-26.3c3.858-6.462,1.969-14.399-4.221-17.734l-10.799-5.819
				c4.436-11.105,7.754-22.699,9.824-34.639l13.262-0.591c7.281-0.324,13.379-6.467,13.626-13.722l0.842-24.726
				c0.247-7.255-5.45-12.888-12.73-12.584l-14.041,0.586c-1.597-11.482-4.416-22.505-8.333-32.946l12.851-7.747
				c6.436-3.881,8.871-12.005,5.443-18.153l2.445-24.571c-3.435-6.158-25.592-4.417-32.045-0.547l-13.524,8.111
				c-7.026-8.492-14.981-16.19-23.729-22.967l8.33-13.816c3.881-6.438,1.98-14.429-4.249-17.852l-9.264-13.405
				c-6.248-3.433-26.479,0.725-30.378,7.175l-8.561,14.158c-10.44-3.58-21.433-6.124-32.87-7.495l0.552-16.209
				c0.249-7.321-5.552-13.057-12.963-12.814l-25.308,0.83c-7.438,0.244-13.673,6.392-13.924,13.733l-0.554,16.254
				c-11.637,2.172-22.935,5.5-33.77,9.843l5.029-17.148c-3.524-6.246-24.492-4.694-31.105-0.794l-22.579,13.318
				c-6.634,3.912-9.143,12.159-5.601,18.414l7.591,13.406c-9.451,7.525-18.169,15.94-25.999,25.107l0.572-8.59
				c-6.408-3.452-28.816,0.42-32.812,6.966l-13.634,22.328c-4.003,6.557-2.036,14.664,4.391,18.106l12.807,6.856
				c-4.796,10.976-8.497,22.463-10.962,34.322l-14.579,0.609C1728.806,816.731,1722.454,822.993,1722.202,830.402z
				 M1815.652,841.516c1.892-55.557,49.188-102.328,105.328-104.455c55.799-2.113,99.269,40.727,97.398,95.676
				c-1.871,54.949-48.391,101.685-104.211,104.405C1858.006,939.879,1813.76,897.073,1815.652,841.516z"/>
			
				<linearGradient id="SVGID_00000067954430406766636030000003799788375648819626_" gradientUnits="userSpaceOnUse" x1="-647.3049" y1="604.2769" x2="-191.4801" y2="1377.4473" gradientTransform="matrix(-0.9994 -0.034 -0.034 0.9994 1519.9918 -127.3651)">
				<stop  offset="0" style="stop-color:#AA80F9"/>
				<stop  offset="0.9964" style="stop-color:#6165D7"/>
			</linearGradient>
			<path style="fill:url(#SVGID_00000067954430406766636030000003799788375648819626_);" d="M1739.163,830.187l-0.86,25.252
				c-0.252,7.409,5.691,13.14,13.268,12.802l13.772-0.614c1.315,12.003,3.952,23.532,7.782,34.447l-11.632,6.978
				c-6.682,4.007-9.207,12.308-5.64,18.538l12.151,21.215c3.561,6.219,11.852,7.999,18.514,3.983l11.007-6.636
				c7.365,9.203,15.796,17.501,25.126,24.745l-6.365,10.527c-3.979,6.58-2.024,14.633,4.362,17.985l21.737,11.404
				c6.367,3.34,14.736,0.719,18.696-5.849l6.097-10.114c11.286,3.851,23.208,6.472,35.609,7.732l-0.381,11.188
				c-0.25,7.341,5.585,12.968,13.028,12.57l25.326-1.356c7.416-0.397,13.626-6.652,13.875-13.972l0.38-11.155
				c12.443-2.549,24.47-6.401,35.92-11.404l5.35,9.451c3.471,6.132,11.558,7.868,18.058,3.885l22.126-13.56
				c6.481-3.973,8.932-12.151,5.479-18.273l-5.531-9.804c9.623-8.1,18.42-17.14,26.22-26.955l10.276,5.502
				c6.208,3.324,14.373,0.768,18.238-5.706l13.163-22.045c3.858-6.462,1.97-14.399-4.22-17.734l-10.799-5.819
				c4.436-11.105,7.754-22.7,9.824-34.639l13.262-0.591c7.281-0.325,13.379-6.467,13.626-13.722l0.842-24.727
				c0.247-7.255-5.45-12.888-12.731-12.584l-14.041,0.586c-1.597-11.482-4.416-22.505-8.333-32.946l12.851-7.747
				c6.436-3.881,8.871-12.005,5.442-18.152l-11.698-20.972c-3.435-6.159-11.448-8.016-17.902-4.146l-13.524,8.112
				c-7.026-8.493-14.981-16.19-23.729-22.967l8.329-13.816c3.882-6.438,1.98-14.429-4.249-17.852l-21.266-11.688
				c-6.248-3.433-14.477-0.993-18.377,5.458l-8.561,14.158c-10.44-3.58-21.433-6.124-32.87-7.496l0.552-16.208
				c0.249-7.321-5.552-13.057-12.963-12.814l-25.308,0.83c-7.437,0.244-13.673,6.392-13.923,13.733l-0.554,16.254
				c-11.637,2.172-22.935,5.501-33.77,9.843l-7.725-13.692c-3.523-6.246-11.738-8.15-18.352-4.25l-22.579,13.318
				c-6.634,3.912-9.143,12.159-5.602,18.413l7.591,13.406c-9.451,7.525-18.169,15.94-25.999,25.107l-13.4-7.22
				c-6.408-3.452-14.845-0.95-18.841,5.595l-13.634,22.328c-4.003,6.557-2.036,14.664,4.391,18.106l12.807,6.856
				c-4.797,10.976-8.498,22.463-10.962,34.322l-14.579,0.609C1745.766,816.516,1739.415,822.778,1739.163,830.187z
				 M1832.613,841.301c1.892-55.557,49.188-102.328,105.328-104.454c55.799-2.114,99.269,40.727,97.398,95.676
				c-1.871,54.949-48.392,101.685-104.211,104.405C1874.966,939.664,1830.721,896.859,1832.613,841.301z"/>
		</g>
	</g>
</g>
</svg>
