<?xml version="1.0" encoding="UTF-8"?>
<svg xmlns="http://www.w3.org/2000/svg" viewBox="0 0 500 377.52">
  <defs>
    <style>
      .cls-1 {
        fill: none;
        stroke: #263238;
        stroke-linecap: round;
        stroke-linejoin: round;
        stroke-width: .56px;
      }

      .cls-2 {
        fill: #ebb376;
      }

      .cls-3, .cls-4, .cls-5, .cls-6, .cls-7, .cls-8, .cls-9, .cls-10, .cls-11 {
        isolation: isolate;
      }

      .cls-3, .cls-6 {
        opacity: .2;
      }

      .cls-4, .cls-12 {
        fill: #407bff;
      }

      .cls-13 {
        fill: #263238;
      }

      .cls-5 {
        opacity: .1;
      }

      .cls-5, .cls-14, .cls-6, .cls-7, .cls-9, .cls-10, .cls-11 {
        fill: #fff;
      }

      .cls-15, .cls-16 {
        fill: #e0e0e0;
      }

      .cls-7 {
        opacity: .7;
      }

      .cls-8 {
        opacity: .4;
      }

      .cls-9 {
        opacity: .5;
      }

      .cls-10 {
        opacity: .3;
      }

      .cls-17 {
        fill: #ebebeb;
      }

      .cls-18 {
        fill: #f5f5f5;
      }

      .cls-16 {
        font-family: Bebas, Bebas;
        font-size: 12px;
      }

      .cls-11 {
        opacity: .6;
      }

      .cls-19 {
        fill: #d58745;
      }
    </style>
  </defs>
  <g id="Background_Complete" data-name="Background Complete">
    <g>
      <rect class="cls-17" y="327.45" width="500" height=".25"/>
      <rect class="cls-17" x="416.78" y="343.54" width="33.12" height=".25"/>
      <rect class="cls-17" x="322.53" y="346.26" width="8.69" height=".25"/>
      <rect class="cls-17" x="396.59" y="334.26" width="19.19" height=".25"/>
      <rect class="cls-17" x="52.46" y="335.94" width="43.19" height=".25"/>
      <rect class="cls-17" x="104.56" y="335.94" width="6.33" height=".25"/>
      <rect class="cls-17" x="131.47" y="340.16" width="93.68" height=".25"/>
      <path class="cls-17" d="M237.01,282.85H43.91c-3.15,0-5.71-2.56-5.71-5.71V5.71c0-3.15,2.56-5.71,5.71-5.71h193.1c3.15,0,5.71,2.56,5.71,5.71v271.43c0,3.15-2.56,5.71-5.71,5.71ZM43.91.25c-3.01,0-5.46,2.45-5.46,5.46v271.43c0,3.01,2.45,5.46,5.46,5.46h193.1c3.01,0,5.46-2.45,5.46-5.46V5.71c0-3.01-2.45-5.46-5.46-5.46H43.91Z"/>
      <path class="cls-17" d="M453.31,282.85h-193.1c-3.15,0-5.71-2.56-5.71-5.71V5.71c0-3.15,2.56-5.71,5.71-5.71h193.1c3.15,0,5.71,2.56,5.71,5.71v271.43c0,3.15-2.56,5.71-5.71,5.71ZM260.21.25c-3.01,0-5.46,2.45-5.46,5.46v271.43c0,3.01,2.45,5.46,5.46,5.46h193.1c3.01,0,5.46-2.45,5.46-5.46V5.71c0-3.01-2.45-5.46-5.46-5.46h-193.1Z"/>
    </g>
    <g>
      <g>
        <path class="cls-15" d="M443.18,23.42v-4.29l-2.21-.21c-.3-1.44-.87-2.78-1.65-3.97l1.42-1.72-3.04-3.04-1.72,1.42c-1.19-.78-2.53-1.35-3.97-1.65l-.21-2.21h-4.29l-.21,2.21c-1.44.3-2.78.87-3.97,1.65l-1.72-1.42-3.04,3.04,1.42,1.72c-.78,1.19-1.35,2.53-1.65,3.97l-2.21.21v4.29s2.21.21,2.21.21c.3,1.44.87,2.78,1.65,3.97l-1.42,1.72,3.04,3.04,1.72-1.42c1.19.78,2.53,1.35,3.97,1.65l.21,2.21h4.29l.21-2.21c1.44-.3,2.78-.87,3.97-1.65l1.72,1.42,3.04-3.04-1.42-1.72c.78-1.19,1.35-2.53,1.65-3.97l2.21-.21ZM429.67,27.09c-3.21,0-5.81-2.6-5.81-5.81s2.6-5.81,5.81-5.81,5.81,2.6,5.81,5.81-2.6,5.81-5.81,5.81Z"/>
        <path class="cls-15" d="M460.59,35.54v-3.37s-1.73-.16-1.73-.16c-.23-1.13-.68-2.18-1.29-3.11l1.11-1.34-2.38-2.38-1.34,1.11c-.93-.61-1.98-1.06-3.11-1.29l-.16-1.73h-3.37l-.16,1.73c-1.13.23-2.18.68-3.11,1.29l-1.34-1.11-2.38,2.38,1.11,1.34c-.61.93-1.06,1.98-1.29,3.11l-1.73.16v3.37s1.73.16,1.73.16c.23,1.13.68,2.18,1.29,3.11l-1.11,1.34,2.38,2.38,1.34-1.11c.93.61,1.98,1.06,3.11,1.29l.16,1.73h3.37l.16-1.73c1.13-.23,2.18-.68,3.11-1.29l1.34,1.11,2.38-2.38-1.11-1.34c.61-.93,1.06-1.98,1.29-3.11l1.73-.16ZM450,38.41c-2.52,0-4.56-2.04-4.56-4.56s2.04-4.56,4.56-4.56,4.56,2.04,4.56,4.56-2.04,4.56-4.56,4.56Z"/>
        <path class="cls-15" d="M443.18,45.09v-2.83l-1.46-.14c-.2-.95-.57-1.83-1.09-2.61l.93-1.13-2-2-1.13.93c-.78-.51-1.66-.89-2.61-1.09l-.14-1.46h-2.83l-.14,1.46c-.95.2-1.83.57-2.61,1.09l-1.13-.93-2,2,.93,1.13c-.51.78-.89,1.66-1.09,2.61l-1.46.14v2.83s1.46.14,1.46.14c.2.95.57,1.83,1.09,2.61l-.93,1.13,2,2,1.13-.93c.78.51,1.66.89,2.61,1.09l.14,1.46h2.83l.14-1.46c.95-.2,1.83-.57,2.61-1.09l1.13.93,2-2-.93-1.13c.51-.78.89-1.66,1.09-2.61l1.46-.14ZM434.29,47.51c-2.11,0-3.83-1.71-3.83-3.83s1.71-3.83,3.83-3.83,3.83,1.71,3.83,3.83-1.71,3.83-3.83,3.83Z"/>
      </g>
      <g>
        <polygon class="cls-15" points="50.47 326.52 72.82 178.03 72.82 326.52 78.82 326.52 78.82 177.1 101.19 326.52 107.62 326.52 79.61 139.49 78.82 139.6 78.82 133.52 72.82 133.52 72.82 139.58 71.99 139.49 43.92 326.52 50.47 326.52"/>
        <polygon class="cls-17" points="106.56 160.23 44.74 160.23 49.75 108.57 101.56 108.57 106.56 160.23"/>
      </g>
      <text class="cls-16" transform="translate(64.11 23.45)"><tspan x="0" y="0">1011100010101000101010101010101010000000111111001011110101</tspan></text>
      <text class="cls-16" transform="translate(142.56 264.34)"><tspan x="0" y="0">1011100010101000101010101000111110101010000111010100000</tspan></text>
      <text class="cls-16" transform="translate(85.45 60.48)"><tspan x="0" y="0">01010100010101010000000111111001011110101</tspan></text>
      <text class="cls-16" transform="translate(163.24 306.54)"><tspan x="0" y="0">01010100010101010000000111111001011110101</tspan></text>
      <text class="cls-16" transform="translate(227.31 284.21)"><tspan x="0" y="0">01010100010101010000000111111001011110101</tspan></text>
      <text class="cls-16" transform="translate(85.45 79.05)"><tspan x="0" y="0">010101000101010101010101010000000111111001011110101</tspan></text>
    </g>
  </g>
  <g id="Shadow">
    <ellipse id="_Path_" data-name="&amp;lt;Path&amp;gt;" class="cls-18" cx="250" cy="361.29" rx="193.89" ry="11.32"/>
  </g>
  <g id="Window">
    <g>
      <path class="cls-12" d="M444,37.66v201.25c0,4.82-4.22,9.14-9.03,9.14H145.39c-4.81,0-8.39-4.32-8.39-9.14V37.66c0-4.81,3.58-8.61,8.39-8.61h289.58c4.81,0,9.03,3.8,9.03,8.61Z"/>
      <path class="cls-5" d="M444,62.74v176.17c0,4.82-4.22,9.14-9.03,9.14H145.39c-4.81,0-8.39-4.32-8.39-9.14v-68.57c25.48-48.96,86.22-56.94,157.33-28.29,100.67,40.56,143.59-14.49,149.67-79.31Z"/>
    </g>
  </g>
  <g id="Bar">
    <g>
      <path class="cls-3" d="M364.92,225.08h-146.89c-2.78,0-5.04-2.25-5.04-5.04h0c0-2.78,2.25-5.04,5.04-5.04h146.89c2.78,0,5.04,2.25,5.04,5.04h0c0,2.78-2.25,5.04-5.04,5.04Z"/>
      <path class="cls-12" d="M218.04,224.05c-2.23,0-4.04-1.77-4.04-4s1.81-4,4.04-4h86.85c2.23,0,4.04,1.77,4.04,4s-1.81,4-4.04,4h-86.85Z"/>
      <path class="cls-7" d="M218.04,224.05c-2.23,0-4.04-1.77-4.04-4s1.81-4,4.04-4h86.85c2.23,0,4.04,1.77,4.04,4s-1.81,4-4.04,4h-86.85Z"/>
    </g>
  </g>
  <g id="Character">
    <g id="_Group_" data-name="&amp;lt;Group&amp;gt;">
      <g>
        <path class="cls-13" d="M159.93,232.31c9.32,7.49,6.07,43.24,7.82,48.74s9.25,10.02,9.25,10.02l-10.46,12.25s-8.75-1.52-15.39-15.77,8.79-55.24,8.79-55.24Z"/>
        <path class="cls-3" d="M159.93,232.31c9.32,7.49,6.07,43.24,7.82,48.74s9.25,10.02,9.25,10.02l-10.46,12.25s-8.75-1.52-15.39-15.77,8.79-55.24,8.79-55.24Z"/>
      </g>
      <g>
        <path class="cls-12" d="M150.03,310.8s66.97-18.69,75.38,4.81-52.39,42.24-86.04,43.39c-33.65,1.15-47.38-22.45-37.46-44.88l48.11-3.33Z"/>
        <path class="cls-3" d="M150.03,310.8s66.97-18.69,75.38,4.81-52.39,42.24-86.04,43.39c-33.65,1.15-47.38-22.45-37.46-44.88l48.11-3.33Z"/>
      </g>
      <path class="cls-12" d="M215.67,348.84c-.08.05-.18.04-.25-.01-.07-.05-.09-.13-.06-.21.11-.37,1.22-3.61,2.35-3.95.24-.06.5.02.67.2.32.26.47.68.4,1.09-.18.61-.55,1.14-1.05,1.52-.64.52-1.33.98-2.06,1.37ZM215.96,348.22c1.05-.46,1.9-1.28,2.4-2.31.06-.28-.05-.57-.29-.74-.06-.08-.17-.11-.26-.08-.1.03-.18.08-.26.15-.71.89-1.24,1.9-1.59,2.98Z"/>
      <path class="cls-12" d="M215.61,348.88c-.08.03-.16,0-.21-.06-.1-.09-1.66-2.05-1.4-3.38.06-.33.26-.62.54-.81.24-.23.62-.27.9-.08.81.57.71,3.2.31,4.19l-.03.1s-.07.04-.11.04ZM214.72,345.04c-.14.12-.24.29-.27.47-.16.84.62,2.09,1.04,2.69.26-1.12.17-2.96-.3-3.29-.05-.03-.15-.1-.39.07l-.08.06h0Z"/>
      <path class="cls-12" d="M147.4,360.74c.02-.09.09-.16.18-.17.08-.01.16.03.19.1.19.34,1.72,3.4,1.18,4.44-.13.21-.36.35-.61.34-.41.04-.81-.14-1.05-.47-.3-.55-.43-1.19-.35-1.82.07-.82.23-1.64.47-2.43ZM147.64,361.38c-.4,1.07-.41,2.25-.03,3.33.16.24.45.36.73.31.1,0,.2-.04.24-.13.04-.09.07-.19.07-.29-.14-1.13-.49-2.22-1.02-3.22Z"/>
      <polygon class="cls-2" points="163.63 338.12 151.78 346.81 146.08 350.98 149.8 357.46 155.58 354.3 169.69 346.59 163.63 338.12"/>
      <path class="cls-13" d="M151.64,357.27l-3.58-7.89c-.2-.44-.72-.63-1.16-.42l-3.85,1.89s-5.37,2.17-6.04,3.91c-1.97,5.1,5.49,22.75,7.82,22.76.85,0,1.36-1.32,1.48-2.16.38-2.67.44-9.4.78-11.62.4-2.6,3.03-4.61,4.25-5.4.35-.23.47-.68.3-1.06Z"/>
      <path class="cls-12" d="M147.41,360.67c.03-.07.11-.12.19-.11.14-.01,2.63.25,3.39,1.36.19.28.27.62.2.95,0,.34-.24.63-.57.7-.98.18-2.78-1.73-3.22-2.71l-.05-.09s.02-.08.05-.1ZM150.78,362.73c.01-.19-.04-.37-.15-.52-.49-.7-1.93-1.02-2.65-1.14.62.97,1.99,2.2,2.56,2.09.06-.02.18-.03.23-.32v-.1h.01Z"/>
      <polygon class="cls-3" points="163.63 338.12 151.78 346.81 155.58 354.3 169.69 346.59 163.63 338.12"/>
      <g>
        <polygon class="cls-12" points="158.28 354.79 162.18 353.93 155.71 341.57 152.09 345.25 158.28 354.79"/>
        <polygon class="cls-11" points="158.28 354.79 162.18 353.93 155.71 341.57 152.09 345.25 158.28 354.79"/>
      </g>
      <polygon class="cls-2" points="188.15 353.08 202.65 355.47 209.62 356.61 211.65 349.42 205.35 347.51 189.97 342.83 188.15 353.08"/>
      <path class="cls-13" d="M210.23,348.24l-3.14,8.08c-.17.45.06.96.51,1.12l4.05,1.43s5.31,2.32,7.02,1.58c5.02-2.16,12.41-19.84,10.79-21.51-.6-.61-1.89-.05-2.58.46-2.17,1.6-7.02,6.26-8.85,7.57-2.14,1.54-5.41,1.06-6.83.75-.41-.09-.82.14-.97.53Z"/>
      <polygon class="cls-3" points="188.15 353.08 202.65 355.47 205.35 347.51 189.97 342.83 188.15 353.08"/>
      <path class="cls-12" d="M202.85,346s-60.28-35.55-80.68-34.61-22.18,21.25-13.77,32.51c8.42,11.26,23.96,14,23.96,14,0,0-10.58-14.95-9.05-19.16,1.53-4.21,7.36,9.94,7.36,9.94,0,0,37.35,4.89,69.88,7.65l2.29-10.32Z"/>
      <g>
        <polygon class="cls-12" points="203.8 345.09 200.46 342.84 196.16 356.05 201.32 356.05 203.8 345.09"/>
        <polygon class="cls-11" points="203.8 345.09 200.46 342.84 196.16 356.05 201.32 356.05 203.8 345.09"/>
      </g>
      <path class="cls-13" d="M157.89,317.05c-10.9-21-7.43-52.95,2.05-84.74-6.6-5.51-32.93-9.23-53.04-3.39,0,0-12.74,47.21-11.24,98.78l62.23-10.65Z"/>
      <path class="cls-2" d="M134.73,237.47c-8.77,0-14.48-9.2-14.48-9.2,11.5-4.03,11.54-16.17,11.54-16.17l4.43,4.33,6.31,6.18c-5.25,3.72-2.77,6.94-1.1,8.37.6.53,1.1.82,1.1.82,0,0,.97,5.67-7.8,5.67Z"/>
      <path class="cls-3" d="M141.43,230.98c-10.76,1.21-10.03-14.9-10.03-14.9,1.71-.02,3.32.1,4.82.35l6.31,6.18c-5.25,3.72-2.77,6.94-1.1,8.37Z"/>
      <g>
        <path class="cls-13" d="M149.83,200.01c-4.08,1.69-3.3,6.14,3.46,14.24,4.16-3.58,6.42-11.74,4.23-14.36-2.18-2.62-4.15-1.33-7.7.12Z"/>
        <path class="cls-2" d="M155.85,218.05s0,.01-.01.03c-.39,1.14-.83,2.21-1.3,3.18-4.02,8.19-15.58,9.78-20.7,1.68-.02-.03-.04-.05-.06-.08-3.38-5.45-2.11-10.54-.7-19.36.28-1.87.99-3.64,2.08-5.19,3.86-5.51,11.45-6.85,16.96-2.99,6.71,4.66,6.31,15.2,3.73,22.73Z"/>
        <path class="cls-13" d="M145.54,208.8c-.16.71.09,1.37.55,1.47.46.1.96-.38,1.12-1.09.16-.71-.08-1.36-.54-1.47s-.93.41-1.13,1.1Z"/>
        <path class="cls-13" d="M153.58,210.61c-.16.71.09,1.37.55,1.47s.97-.38,1.13-1.1c.16-.72-.09-1.37-.55-1.47s-.97.39-1.13,1.09Z"/>
        <path class="cls-19" d="M150.88,210.36c.36,2.35,1.04,4.65,2.03,6.81-1.54.88-3.53-.13-3.53-.13l1.5-6.68Z"/>
        <path class="cls-13" d="M143.91,205.77c-.09,0-.18-.05-.25-.12-.15-.18-.13-.45.04-.6,1.03-.92,2.43-1.27,3.77-.96.22.06.35.28.3.5,0,0,0,.02,0,.03-.07.22-.3.34-.53.29h0c-1.06-.23-2.16.06-2.97.79-.1.07-.23.1-.35.07Z"/>
        <path class="cls-13" d="M157.85,208.72c-.16-.04-.29-.16-.33-.32-.22-1.06-.93-1.96-1.92-2.41-.22-.08-.33-.33-.26-.55.08-.22.32-.33.54-.26,1.26.55,2.18,1.67,2.46,3.02.05.23-.08.45-.31.51,0,0,0,0,0,0-.06.01-.12.02-.18,0Z"/>
        <path class="cls-13" d="M138.28,196.57c3.75,2.31,2.27,6.58-5.69,13.5-3.54-4.2-4.47-12.62-1.89-14.85,2.58-2.22,4.3-.66,7.58,1.35Z"/>
        <path class="cls-2" d="M127.38,209.53c.13,2.24,1.15,4.34,2.83,5.84,2.24,1.96,4.64.26,5.09-2.52.4-2.51-.28-6.55-3.04-7.43-2.76-.88-5.02,1.36-4.87,4.11Z"/>
        <path class="cls-1" d="M142.53,217.14s.92,3.18,5.18,3.91"/>
        <path class="cls-1" d="M150.19,210.42c0,1.67-1.36,3.03-3.03,3.03s-3.03-1.36-3.03-3.03,1.36-3.03,3.03-3.03,3.03,1.36,3.03,3.03Z"/>
        <path class="cls-1" d="M158.36,212.1c0,1.67-1.36,3.03-3.03,3.03s-3.03-1.36-3.03-3.03,1.36-3.03,3.03-3.03,3.03,1.36,3.03,3.03Z"/>
        <path class="cls-1" d="M150.19,211.23s1.41-.69,2.11.56"/>
        <path class="cls-1" d="M144.19,209.8s-8.69-3.66-10.31-4.02"/>
        <path class="cls-13" d="M130.61,195.34s-.9-7.06,6.31-8.23c7.21-1.17,16.64.64,19.56-.61,0,0-.39,2.24-2.07,3.07,0,0,5.5,2.03,9.83.28,0,0-1.88,5.21-4.31,7.21h2.07s-4.1,3.92-9.09,4-9.69-6.79-14.63-4.48c-4.94,2.31-7.66-1.23-7.66-1.23Z"/>
        <path class="cls-8" d="M155.85,218.05s0,.01-.01.03c-.39,1.14-.83,2.21-1.3,3.18-4.02,8.19-15.58,9.78-20.7,1.68-.02-.03-.04-.05-.06-.08-2.64-4.69-.53-9.81-.53-9.81l1.54-4.99,1.12-1.11s.26,5.07,1.05,6.5c.79,1.43,5.29,1.85,6.21,2.1.91.25,3.1,2.85,4.18,3.55,1.07.7,5.04.12,5.51.7.47.58,2.99-1.75,2.99-1.75Z"/>
      </g>
      <path class="cls-3" d="M110.89,298.55l20.74,22.99s22.93-.51,50.76,13.1c0,0,29.87-12.34,32.62-22.59s-62.71-3-62.71-3l-41.41-10.5Z"/>
      <path class="cls-2" d="M116.75,291.8l33.25,10.88s11.88-2.62,14-2.62,10.33,6.67,5.69,9-17.31,2.62-18.69,1.88-38.25-9.38-38.25-9.38l4-9.75Z"/>
      <g>
        <path class="cls-13" d="M106.89,228.92c7.52-1.46-5.53,44.38-2.33,51.13s15.69,11.02,15.69,11.02l-5.75,12.69s-17-3.21-26.25-14.96,6.36-57.5,18.64-59.88Z"/>
        <path class="cls-3" d="M106.89,228.92c7.52-1.46-5.53,44.38-2.33,51.13s15.69,11.02,15.69,11.02l-5.75,12.69s-17-3.21-26.25-14.96,6.36-57.5,18.64-59.88Z"/>
      </g>
      <g>
        <polygon class="cls-13" points="120.25 290.05 113.25 303.76 119.25 305.05 124.75 292.42 120.25 290.05"/>
        <polygon class="cls-6" points="120.25 290.05 113.25 303.76 119.25 305.05 124.75 292.42 120.25 290.05"/>
      </g>
      <g>
        <g>
          <path class="cls-13" d="M134,309.05v2.18c0,1.47,1.22,2.82,2.7,2.82h80.39c1.48,0,2.91-1.35,2.91-2.82v-2.18h-86Z"/>
          <path class="cls-6" d="M134,309.05v2.18c0,1.47,1.22,2.82,2.7,2.82h80.39c1.48,0,2.91-1.35,2.91-2.82v-2.18h-86Z"/>
          <path class="cls-6" d="M164,309.05v2.18c0,1.47,1.24,2.82,2.71,2.82h50.38c1.48,0,2.91-1.35,2.91-2.82v-2.18h-56Z"/>
        </g>
        <g>
          <path class="cls-13" d="M166.71,312.05h53.11c1.63,0,3.36-1.28,3.86-2.85l12.18-38.2c.5-1.57-.41-2.94-2.04-2.94h-53.11c-1.63,0-3.36,1.38-3.86,2.94l-12.18,38.16c-.5,1.57.41,2.9,2.04,2.9Z"/>
          <path class="cls-6" d="M166.71,312.05h53.11c1.63,0,3.36-1.28,3.86-2.85l12.18-38.2c.5-1.57-.41-2.94-2.04-2.94h-53.11c-1.63,0-3.36,1.38-3.86,2.94l-12.18,38.16c-.5,1.57.41,2.9,2.04,2.9Z"/>
          <path class="cls-6" d="M168.71,312.05h51.11c1.63,0,3.36-1.28,3.86-2.85l12.18-38.2c.5-1.57-.41-2.94-2.04-2.94h-51.11c-1.63,0-3.36,1.38-3.86,2.94l-12.18,38.16c-.5,1.57.41,2.9,2.04,2.9Z"/>
        </g>
        <polygon class="cls-6" points="205.32 285.86 197.97 291.06 201.15 296.27 208.5 291.06 205.32 285.86"/>
      </g>
    </g>
  </g>
  <g id="Tab5">
    <g>
      <rect class="cls-3" x="166.12" y="38.75" width="84.73" height="84.73" rx="8.74" ry="8.74"/>
      <rect class="cls-4" x="189.88" y="29.45" width="71" height="71" rx="7.33" ry="7.33"/>
      <g>
        <rect class="cls-10" x="189.88" y="29.45" width="71" height="71" rx="7.33" ry="7.33"/>
        <g>
          <path class="cls-14" d="M230.85,56.75v-4.29s-2.21-.21-2.21-.21c-.3-1.44-.87-2.78-1.65-3.97l1.42-1.72-3.04-3.04-1.72,1.42c-1.19-.78-2.53-1.35-3.97-1.65l-.21-2.21h-4.29l-.21,2.21c-1.44.3-2.78.87-3.97,1.65l-1.72-1.42-3.04,3.04,1.42,1.72c-.78,1.19-1.35,2.53-1.65,3.97l-2.21.21v4.29s2.21.21,2.21.21c.3,1.44.87,2.78,1.65,3.97l-1.42,1.72,3.04,3.04,1.72-1.42c1.19.78,2.53,1.35,3.97,1.65l.21,2.21h4.29l.21-2.21c1.44-.3,2.78-.87,3.97-1.65l1.72,1.42,3.04-3.04-1.42-1.72c.78-1.19,1.35-2.53,1.65-3.97l2.21-.21ZM217.34,60.42c-3.21,0-5.81-2.6-5.81-5.81s2.6-5.81,5.81-5.81,5.81,2.6,5.81,5.81-2.6,5.81-5.81,5.81Z"/>
          <path class="cls-14" d="M248.25,68.87v-3.37s-1.73-.16-1.73-.16c-.23-1.13-.68-2.18-1.29-3.11l1.11-1.34-2.38-2.38-1.34,1.11c-.93-.61-1.98-1.06-3.11-1.29l-.16-1.73h-3.37l-.16,1.73c-1.13.23-2.18.68-3.11,1.29l-1.34-1.11-2.38,2.38,1.11,1.34c-.61.93-1.06,1.98-1.29,3.11l-1.73.16v3.37l1.73.16c.23,1.13.68,2.18,1.29,3.11l-1.11,1.34,2.38,2.38,1.34-1.11c.93.61,1.98,1.06,3.11,1.29l.16,1.73h3.37l.16-1.73c1.13-.23,2.18-.68,3.11-1.29l1.34,1.11,2.38-2.38-1.11-1.34c.61-.93,1.06-1.98,1.29-3.11l1.73-.16ZM237.66,71.75c-2.52,0-4.56-2.04-4.56-4.56s2.04-4.56,4.56-4.56,4.56,2.04,4.56,4.56-2.04,4.56-4.56,4.56Z"/>
          <path class="cls-14" d="M230.85,78.43v-2.83s-1.46-.14-1.46-.14c-.2-.95-.57-1.83-1.09-2.61l.93-1.13-2-2-1.13.93c-.78-.51-1.66-.89-2.61-1.09l-.14-1.46h-2.83l-.14,1.46c-.95.2-1.83.57-2.61,1.09l-1.13-.93-2,2,.93,1.13c-.51.78-.89,1.66-1.09,2.61l-1.46.14v2.83l1.46.14c.2.95.57,1.83,1.09,2.61l-.93,1.13,2,2,1.13-.93c.78.51,1.66.89,2.61,1.09l.14,1.46h2.83l.14-1.46c.95-.2,1.83-.57,2.61-1.09l1.13.93,2-2-.93-1.13c.51-.78.89-1.66,1.09-2.61l1.46-.14ZM221.96,80.84c-2.11,0-3.83-1.71-3.83-3.83s1.71-3.83,3.83-3.83,3.83,1.71,3.83,3.83-1.71,3.83-3.83,3.83Z"/>
        </g>
      </g>
      <rect class="cls-6" x="192.88" y="29.45" width="71" height="71" rx="7.33" ry="7.33"/>
    </g>
  </g>
  <g id="Tab4">
    <g>
      <rect class="cls-3" x="294" y="120.99" width="78.33" height="78.33" rx="8.08" ry="8.08"/>
      <rect class="cls-4" x="313.68" y="116.8" width="65.63" height="65.63" rx="6.77" ry="6.77"/>
      <g>
        <rect class="cls-6" x="313.68" y="116.8" width="65.63" height="65.63" rx="6.77" ry="6.77"/>
        <g>
          <path class="cls-14" d="M348.99,160.16c0,1.31-1.06,2.37-2.37,2.37s-2.37-1.06-2.37-2.37,1.06-2.37,2.37-2.37,2.37,1.06,2.37,2.37Z"/>
          <path class="cls-14" d="M346.43,136.52c-13,0-23.53,10.53-23.53,23.53h18.79c0-3,2.12-4.64,4.74-4.64.5,0,.96.14,1.41.27l8.81-10.23-6.22,12.1c.46.73.74,1.5.74,2.5h18.79c0-13-10.53-23.53-23.53-23.53Z"/>
        </g>
      </g>
      <rect class="cls-6" x="316.45" y="116.8" width="65.63" height="65.63" rx="6.77" ry="6.77"/>
    </g>
  </g>
  <g id="Tab3">
    <g>
      <rect class="cls-3" x="321.7" y="58.38" width="68.73" height="68.73" rx="7.09" ry="7.09"/>
      <rect class="cls-4" x="340.13" y="52.33" width="57.59" height="57.59" rx="5.94" ry="5.94"/>
      <g>
        <rect class="cls-5" x="340.13" y="52.33" width="57.59" height="57.59" rx="5.94" ry="5.94"/>
        <g>
          <path class="cls-14" d="M385,66.94c0-1.05-.85-1.89-1.89-1.89h-28.22c-1.05,0-1.89.85-1.89,1.89v6.22c0,1.05.85,1.89,1.89,1.89h28.22c1.05,0,1.89-.85,1.89-1.89v-6.22ZM375.68,70.31h-1.62v-1.62h1.62v1.62ZM380.01,71.12c-.9,0-1.62-.73-1.62-1.62s.73-1.62,1.62-1.62,1.62.73,1.62,1.62-.73,1.62-1.62,1.62Z"/>
          <path class="cls-14" d="M385,77.94c0-1.05-.85-1.89-1.89-1.89h-28.22c-1.05,0-1.89.85-1.89,1.89v6.21c0,1.05.85,1.89,1.89,1.89h28.22c1.05,0,1.89-.85,1.89-1.89v-6.21ZM375.68,81.93h-1.62v-1.62h1.62v1.62ZM380.01,82.74c-.9,0-1.62-.73-1.62-1.62s.73-1.62,1.62-1.62,1.62.73,1.62,1.62-.73,1.62-1.62,1.62Z"/>
          <path class="cls-14" d="M385,88.94c0-1.05-.85-1.89-1.89-1.89h-28.22c-1.05,0-1.89.85-1.89,1.89v6.22c0,1.05.85,1.89,1.89,1.89h28.22c1.05,0,1.89-.85,1.89-1.89v-6.22ZM375.68,93.56h-1.62v-1.62h1.62v1.62ZM380.01,94.37c-.9,0-1.62-.73-1.62-1.62s.73-1.62,1.62-1.62,1.62.73,1.62,1.62-.73,1.62-1.62,1.62Z"/>
        </g>
      </g>
      <rect class="cls-6" x="342.57" y="52.33" width="57.59" height="57.59" rx="5.94" ry="5.94"/>
    </g>
  </g>
  <g id="Tab2">
    <g>
      <rect class="cls-3" x="209.61" y="111.61" width="84.73" height="84.73" rx="8.74" ry="8.74"/>
      <rect class="cls-4" x="229.49" y="105.61" width="71" height="71" rx="7.33" ry="7.33"/>
      <g>
        <rect class="cls-9" x="229.49" y="105.61" width="71" height="71" rx="7.33" ry="7.33"/>
        <g>
          <g>
            <path class="cls-14" d="M245.35,160.61h0c-2.17-2.17-2.17-5.68,0-7.85l12.95-12.95c1.22-1.22,3.2-1.22,4.43,0l3.42,3.42c1.22,1.22,1.22,3.2,0,4.43l-12.95,12.95c-2.17,2.17-5.68,2.17-7.85,0Z"/>
            <polygon class="cls-14" points="269.21 139.29 266.66 136.75 281.29 122.12 284.48 121.48 283.84 124.66 269.21 139.29"/>
            <path class="cls-14" d="M267.77,142.69l-4.51-4.51c-.4-.4-.4-1.06,0-1.46h0c.4-.4,1.06-.4,1.46,0l4.51,4.51c.4.4.4,1.06,0,1.46h0c-.4.4-1.06.4-1.46,0Z"/>
          </g>
          <path class="cls-14" d="M261.71,134.06l-6.17-6.19c1.16-3.09-1.17-6.89-3.7-7.9l-.05,4.76c0,1.1-.92,2.02-2.02,2.02-1.1,0-2.02-.88-2.02-1.98v-4.72c-1.99.78-4.1,3.05-4.1,5.75,0,3.06,2.38,5.55,5.34,5.96,1.03.14,2,.02,2.98-.42l6.22,6.23,3.54-3.54Z"/>
          <path class="cls-14" d="M282.25,157.53v4.72c1.99-.78,4.09-3.05,4.1-5.75,0-3.06-2.25-5.68-5.21-6.1-1.03-.14-1.87-.15-2.85.29l-6.46-6.48-3.54,3.54,6.42,6.43c-1.86,3.8,1.04,7.02,3.57,8.03l-.02-4.7c0-1.1.89-1.99,1.99-1.99,1.1,0,1.99.9,1.99,2.01Z"/>
        </g>
      </g>
      <rect class="cls-6" x="232.49" y="105.61" width="71" height="71" rx="7.33" ry="7.33"/>
    </g>
  </g>
  <g id="Tab1">
    <g>
      <rect class="cls-4" x="269.41" y="7.18" width="85.58" height="85.58" rx="8.83" ry="8.83" transform="translate(624.41 99.95) rotate(180)"/>
      <rect class="cls-3" x="249.67" y="20.78" width="102.14" height="102.14" rx="10.54" ry="10.54"/>
      <g>
        <rect class="cls-9" x="269.41" y="7.18" width="85.58" height="85.58" rx="8.83" ry="8.83" transform="translate(624.41 99.95) rotate(180)"/>
        <path class="cls-14" d="M312.18,23.45l-26.22,10.29s3.31,36,26.22,42.75c22.9-6.75,26.22-42.75,26.22-42.75l-26.22-10.29ZM311.52,58.31c-.34.45-.88.73-1.44.73h-.02c-.57,0-1.11-.3-1.44-.76l-9.19-12.66c-.59-.81-.41-1.94.4-2.53.81-.59,1.94-.41,2.53.4l7.76,10.68,12.69-16.74c.6-.8,1.74-.95,2.53-.35.8.6.95,1.85.35,2.64l-14.16,18.59Z"/>
      </g>
      <rect class="cls-6" x="273.03" y="7.18" width="85.58" height="85.58" rx="8.83" ry="8.83" transform="translate(631.64 99.95) rotate(180)"/>
    </g>
  </g>
  <g id="Promt2">
    <g>
      <g>
        <rect class="cls-12" x="347.81" y="229.97" width="85.25" height="57.53"/>
        <rect class="cls-7" x="347.81" y="229.97" width="85.25" height="57.53"/>
      </g>
      <rect class="cls-13" x="349.39" y="234.41" width="81.87" height="51.18"/>
      <g>
        <rect class="cls-15" x="353.14" y="242.34" width="67.31" height="1.5"/>
        <rect class="cls-15" x="353.14" y="246.59" width="57.3" height="1.5"/>
        <rect class="cls-15" x="353.14" y="250.84" width="67.31" height="1.5"/>
        <rect class="cls-15" x="353.14" y="255.09" width="57.3" height="1.5"/>
        <rect class="cls-15" x="353.14" y="259.34" width="7.27" height="1.5"/>
        <rect class="cls-15" x="353.14" y="263.59" width="37.29" height="1.5"/>
        <rect class="cls-15" x="353.14" y="267.84" width="57.3" height="1.5"/>
        <rect class="cls-15" x="353.14" y="272.09" width="7.27" height="1.5"/>
        <rect class="cls-15" x="353.14" y="276.34" width="7.27" height="1.5"/>
      </g>
    </g>
  </g>
  <g id="Promt1">
    <g>
      <g>
        <rect class="cls-12" x="101.98" y="110.28" width="85.25" height="57.53"/>
        <rect class="cls-7" x="101.98" y="110.28" width="85.25" height="57.53"/>
      </g>
      <rect class="cls-13" x="103.57" y="114.72" width="81.87" height="51.18"/>
      <g>
        <rect class="cls-15" x="107.32" y="122.65" width="67.31" height="1.5"/>
        <rect class="cls-15" x="107.32" y="126.9" width="57.3" height="1.5"/>
        <rect class="cls-15" x="107.32" y="131.15" width="67.31" height="1.5"/>
        <rect class="cls-15" x="107.32" y="135.4" width="57.3" height="1.5"/>
        <rect class="cls-15" x="107.32" y="139.65" width="7.27" height="1.5"/>
        <rect class="cls-15" x="107.32" y="143.9" width="37.29" height="1.5"/>
        <rect class="cls-15" x="107.32" y="148.15" width="57.3" height="1.5"/>
        <rect class="cls-15" x="107.32" y="152.4" width="7.27" height="1.5"/>
        <rect class="cls-15" x="107.32" y="156.65" width="7.27" height="1.5"/>
      </g>
    </g>
  </g>
</svg>