<?xml version="1.0" encoding="UTF-8"?>
<svg xmlns="http://www.w3.org/2000/svg" viewBox="0 0 438.21 387.1">
  <defs>
    <style>
      .cls-1 {
        fill: #ded7ff;
      }

      .cls-2 {
        fill: #d42190;
      }

      .cls-3 {
        letter-spacing: -.04em;
      }

      .cls-4, .cls-5, .cls-6, .cls-7, .cls-8, .cls-9, .cls-10 {
        fill: #fff;
      }

      .cls-11 {
        letter-spacing: -.01em;
      }

      .cls-12 {
        fill: #c60c88;
      }

      .cls-5 {
        opacity: .5;
      }

      .cls-13 {
        letter-spacing: 0em;
      }

      .cls-14 {
        stroke: #b19cfe;
        stroke-width: .5px;
      }

      .cls-14, .cls-15 {
        fill: none;
        stroke-miterlimit: 10;
      }

      .cls-15 {
        stroke: #0f1b63;
      }

      .cls-16 {
        fill: #b19cfe;
      }

      .cls-6 {
        font-size: 25px;
      }

      .cls-6, .cls-7, .cls-8, .cls-9, .cls-10 {
        font-family: Montserrat-Bold, Montserrat;
        font-weight: 700;
      }

      .cls-17 {
        isolation: isolate;
      }

      .cls-18 {
        letter-spacing: 0em;
      }

      .cls-19 {
        fill: #ffc655;
      }

      .cls-7 {
        font-size: 18.26px;
      }

      .cls-8 {
        font-size: 19.29px;
      }

      .cls-20 {
        fill: #0f1b63;
      }

      .cls-21 {
        mix-blend-mode: multiply;
      }

      .cls-22 {
        opacity: .45;
      }

      .cls-23 {
        fill: #c1c1c1;
      }

      .cls-24 {
        letter-spacing: 0em;
      }

      .cls-9 {
        font-size: 24.35px;
      }

      .cls-25 {
        fill: #542fd0;
      }

      .cls-10 {
        font-size: 18px;
      }
    </style>
  </defs>
  <g class="cls-17">
    <g id="OBJECTS">
      <g class="cls-22">
        <circle class="cls-1" cx="340.61" cy="304.6" r="82.5"/>
        <circle class="cls-1" cx="158.61" cy="140.6" r="140.5"/>
      </g>
      <path class="cls-15" d="M415.02,126.52l-4.19,3.84c-.14.13-.26.27-.37.41-2.66-1.86-5.59-3.19-8.64-4,.04-.18.07-.37.08-.56l.22-5.68c.07-1.77-1.31-3.26-3.08-3.33l-5.68-.22c-1.77-.07-3.26,1.31-3.33,3.08l-.22,5.68c0,.19,0,.38.03.56-3.02.55-5.96,1.61-8.7,3.18-.1-.15-.21-.3-.34-.44l-3.84-4.19c-1.2-1.31-3.23-1.39-4.53-.2l-4.19,3.84c-1.31,1.2-1.39,3.23-.2,4.53l3.84,4.19c.13.14.27.26.41.37-1.86,2.66-3.19,5.59-4,8.64-.18-.04-.37-.07-.56-.08l-5.68-.22c-.85-.03-1.67.26-2.29.84,0,0,0,0-.01.01-.63.58-.99,1.37-1.03,2.23l-.22,5.68h0c-.07,1.77,1.31,3.26,3.08,3.33l5.68.22c.19,0,.38,0,.56-.03.55,3.02,1.61,5.97,3.18,8.71-.15.1-.3.21-.44.34l-4.19,3.84c-1.31,1.2-1.39,3.23-.2,4.53l3.84,4.19c1.2,1.31,3.23,1.39,4.53.2l4.19-3.84c.14-.13.26-.27.37-.41,2.66,1.86,5.59,3.19,8.64,4-.04.18-.07.37-.08.56l-.22,5.68c-.03.86.27,1.68.85,2.3.58.63,1.37.99,2.23,1.03l5.68.22h0c.88.03,1.69-.29,2.29-.84.61-.56,1.01-1.35,1.04-2.24l.22-5.68c0-.19,0-.38-.03-.56,3.02-.55,5.97-1.61,8.71-3.18.1.15.21.3.34.44l3.84,4.19c1.2,1.31,3.23,1.39,4.53.2l4.19-3.84c1.31-1.2,1.39-3.23.2-4.53l-3.84-4.19c-.13-.14-.27-.26-.41-.37,1.86-2.66,3.19-5.59,4-8.64.18.04.37.07.56.08l5.68.22c.88.03,1.69-.29,2.29-.84.61-.56,1.01-1.35,1.04-2.24l.22-5.68c.07-1.77-1.31-3.26-3.08-3.33l-5.68-.22c-.19,0-.38,0-.56.03-.55-3.02-1.61-5.96-3.18-8.7.15-.1.3-.21.44-.34l4.19-3.84c1.31-1.2,1.39-3.23.2-4.53l-3.84-4.19c-1.2-1.31-3.23-1.39-4.53-.2ZM404.94,164.39c-6.13,5.61-15.68,5.19-21.29-.94-5.61-6.13-5.19-15.68.94-21.29,6.13-5.61,15.68-5.19,21.29.94,5.61,6.13,5.19,15.68-.94,21.29Z"/>
      <g>
        <path class="cls-16" d="M83.49,346.86h-2.21c-.41,0-.74-.33-.74-.74s.33-.74.74-.74h2.21c.41,0,.74.33.74.74s-.33.74-.74.74ZM76.36,346.86h-4.92c-.41,0-.74-.33-.74-.74s.33-.74.74-.74h4.92c.41,0,.74.33.74.74s-.33.74-.74.74ZM66.51,346.86h-4.93c-.41,0-.74-.33-.74-.74s.33-.74.74-.74h4.93c.41,0,.74.33.74.74s-.33.74-.74.74ZM56.66,346.86h-4.93c-.41,0-.74-.33-.74-.74s.33-.74.74-.74h4.93c.41,0,.74.33.74.74s-.33.74-.74.74ZM46.81,346.86h-4.92c-.41,0-.74-.33-.74-.74s.33-.74.74-.74h4.92c.41,0,.74.33.74.74s-.33.74-.74.74ZM36.96,346.86h-4.92c-.41,0-.74-.33-.74-.74s.33-.74.74-.74h4.92c.41,0,.74.33.74.74s-.33.74-.74.74ZM27.11,346.85s-.01,0-.02,0c-1.72-.05-3.41-.33-5.04-.83-.39-.12-.61-.53-.49-.92.12-.39.53-.61.92-.49,1.5.47,3.06.72,4.64.77.41.01.73.35.72.76-.01.4-.34.72-.74.72ZM17.82,343.97c-.14,0-.28-.04-.4-.12-1.43-.93-2.73-2.05-3.87-3.34-.27-.31-.24-.77.07-1.04.3-.27.77-.24,1.04.06,1.05,1.18,2.25,2.22,3.57,3.07.34.22.44.68.22,1.02-.14.22-.38.34-.62.34ZM11.39,336.67c-.28,0-.54-.15-.67-.42-.74-1.54-1.27-3.18-1.57-4.86-.07-.4.2-.79.6-.86.4-.07.78.2.86.6.28,1.55.76,3.06,1.45,4.48.18.37.02.81-.34.99-.1.05-.21.07-.32.07ZM9.59,327.1c-.41,0-.74-.33-.74-.74v-4.92c0-.41.33-.74.74-.74s.74.33.74.74v4.92c0,.41-.33.74-.74.74ZM9.59,317.25c-.41,0-.74-.33-.74-.74v-4.92c0-.41.33-.74.74-.74s.74.33.74.74v4.92c0,.41-.33.74-.74.74ZM9.59,307.4c-.41,0-.74-.33-.74-.74v-4.93c0-.41.33-.74.74-.74s.74.33.74.74v4.93c0,.41-.33.74-.74.74ZM9.59,297.55c-.41,0-.74-.33-.74-.74v-4.92c0-.41.33-.74.74-.74s.74.33.74.74v4.92c0,.41-.33.74-.74.74ZM9.59,287.7c-.41,0-.74-.33-.74-.74v-4.92c0-.41.33-.74.74-.74s.74.33.74.74v4.92c0,.41-.33.74-.74.74ZM9.59,277.85c-.41,0-.74-.33-.74-.74v-4.92c0-.41.33-.74.74-.74s.74.33.74.74v4.92c0,.41-.33.74-.74.74ZM9.59,268c-.41,0-.74-.33-.74-.74v-4.92c0-.41.33-.74.74-.74s.74.33.74.74v4.92c0,.41-.33.74-.74.74ZM9.59,258.15c-.41,0-.74-.33-.74-.74v-4.92c0-.41.33-.74.74-.74s.74.33.74.74v4.92c0,.41-.33.74-.74.74ZM9.59,248.3c-.41,0-.74-.33-.74-.74v-4.93c0-.41.33-.74.74-.74s.74.33.74.74v4.93c0,.41-.33.74-.74.74ZM9.59,238.45c-.41,0-.74-.33-.74-.74v-4.92c0-.41.33-.74.74-.74s.74.33.74.74v4.92c0,.41-.33.74-.74.74ZM9.59,228.6c-.41,0-.74-.33-.74-.74v-4.93c0-.41.33-.74.74-.74s.74.33.74.74v4.93c0,.41-.33.74-.74.74ZM9.59,218.75c-.41,0-.74-.33-.74-.74v-4.92c0-.41.33-.74.74-.74s.74.33.74.74v4.92c0,.41-.33.74-.74.74ZM9.59,208.9c-.41,0-.74-.33-.74-.74v-.5c0-1.54.19-3.08.56-4.56.1-.4.51-.64.9-.54.4.1.64.5.54.9-.34,1.37-.51,2.78-.51,4.2v.5c0,.41-.33.74-.74.74ZM11.96,199.46c-.12,0-.25-.03-.37-.1-.35-.2-.48-.65-.28-1.01.85-1.48,1.89-2.85,3.11-4.05.29-.29.76-.28,1.04,0,.29.29.28.76,0,1.05-1.12,1.11-2.09,2.37-2.87,3.73-.14.24-.39.37-.64.37ZM18.88,192.63c-.26,0-.51-.14-.65-.38-.2-.36-.07-.81.29-1,1.5-.83,3.1-1.45,4.77-1.85.4-.09.79.15.89.55.09.4-.15.8-.55.89-1.53.36-3.01.93-4.39,1.7-.11.06-.24.09-.36.09ZM141.62,190.37h-4.92c-.41,0-.74-.33-.74-.74s.33-.74.74-.74h4.92c.41,0,.74.33.74.74s-.33.74-.74.74ZM131.77,190.37h-4.92c-.41,0-.74-.33-.74-.74s.33-.74.74-.74h4.92c.41,0,.74.33.74.74s-.33.74-.74.74ZM121.92,190.37h-4.92c-.41,0-.74-.33-.74-.74s.33-.74.74-.74h4.92c.41,0,.74.33.74.74s-.33.74-.74.74ZM112.07,190.37h-4.92c-.41,0-.74-.33-.74-.74s.33-.74.74-.74h4.92c.41,0,.74.33.74.74s-.33.74-.74.74ZM102.22,190.37h-4.92c-.41,0-.74-.33-.74-.74s.33-.74.74-.74h4.92c.41,0,.74.33.74.74s-.33.74-.74.74ZM92.37,190.37h-4.93c-.41,0-.74-.33-.74-.74s.33-.74.74-.74h4.93c.41,0,.74.33.74.74s-.33.74-.74.74ZM82.52,190.37h-4.92c-.41,0-.74-.33-.74-.74s.33-.74.74-.74h4.92c.41,0,.74.33.74.74s-.33.74-.74.74ZM72.67,190.37h-4.92c-.41,0-.74-.33-.74-.74s.33-.74.74-.74h4.92c.41,0,.74.33.74.74s-.33.74-.74.74ZM62.82,190.37h-4.93c-.41,0-.74-.33-.74-.74s.33-.74.74-.74h4.93c.41,0,.74.33.74.74s-.33.74-.74.74ZM52.97,190.37h-4.93c-.41,0-.74-.33-.74-.74s.33-.74.74-.74h4.93c.41,0,.74.33.74.74s-.33.74-.74.74ZM43.12,190.37h-4.92c-.41,0-.74-.33-.74-.74s.33-.74.74-.74h4.92c.41,0,.74.33.74.74s-.33.74-.74.74ZM33.27,190.37h-4.92c-.41,0-.74-.33-.74-.74s.33-.74.74-.74h4.92c.41,0,.74.33.74.74s-.33.74-.74.74Z"/>
        <g>
          <circle class="cls-16" cx="9.59" cy="268.09" r="3.22"/>
          <path class="cls-16" d="M9.59,274.13c-3.33,0-6.03-2.71-6.03-6.03s2.71-6.03,6.03-6.03,6.03,2.71,6.03,6.03-2.71,6.03-6.03,6.03ZM9.59,262.8c-2.92,0-5.29,2.37-5.29,5.29s2.37,5.29,5.29,5.29,5.29-2.37,5.29-5.29-2.37-5.29-5.29-5.29Z"/>
        </g>
      </g>
      <g>
        <path class="cls-16" d="M175.4,167.86c-.5,0-.9-.4-.9-.9v-5.99c0-.5.4-.9.9-.9s.9.4.9.9v5.99c0,.5-.4.9-.9.9ZM175.4,155.87c-.5,0-.9-.4-.9-.9v-5.99c0-.5.4-.9.9-.9s.9.4.9.9v5.99c0,.5-.4.9-.9.9ZM175.4,143.89c-.5,0-.9-.4-.9-.9v-5.99c0-.5.4-.9.9-.9s.9.4.9.9v5.99c0,.5-.4.9-.9.9ZM175.4,131.9c-.5,0-.9-.4-.9-.9v-5.99c0-.5.4-.9.9-.9s.9.4.9.9v5.99c0,.5-.4.9-.9.9ZM175.4,119.92c-.5,0-.9-.4-.9-.9v-5.99c0-.5.4-.9.9-.9s.9.4.9.9v5.99c0,.5-.4.9-.9.9ZM175.4,107.94c-.5,0-.9-.4-.9-.9v-5.99c0-.5.4-.9.9-.9s.9.4.9.9v5.99c0,.5-.4.9-.9.9ZM270.56,97.14c-.5,0-.9-.4-.9-.9v-3.33c0-.5.4-.9.9-.9s.9.4.9.9v3.33c0,.5-.4.9-.9.9ZM175.4,95.95c-.5,0-.9-.4-.9-.9v-5.99c0-.5.4-.9.9-.9s.9.4.9.9v5.99c0,.5-.4.9-.9.9ZM270.56,87.82c-.5,0-.9-.4-.9-.9v-5.99c0-.5.4-.9.9-.9s.9.4.9.9v5.99c0,.5-.4.9-.9.9ZM175.4,83.97c-.5,0-.9-.4-.9-.9v-5.99c0-.5.4-.9.9-.9s.9.4.9.9v5.99c0,.5-.4.9-.9.9ZM270.56,75.84c-.5,0-.9-.4-.9-.9v-5.99c0-.5.4-.9.9-.9s.9.4.9.9v5.99c0,.5-.4.9-.9.9ZM175.4,71.98c-.5,0-.9-.4-.9-.9v-5.99c0-.5.4-.9.9-.9s.9.4.9.9v5.99c0,.5-.4.9-.9.9ZM270.56,63.85c-.5,0-.9-.4-.9-.9v-5.99c0-.5.4-.9.9-.9s.9.4.9.9v5.99c0,.5-.4.9-.9.9ZM175.4,60c-.5,0-.9-.4-.9-.9v-5.99c0-.5.4-.9.9-.9s.9.4.9.9v5.99c0,.5-.4.9-.9.9ZM270.56,51.87c-.5,0-.9-.4-.9-.9v-5.99c0-.5.4-.9.9-.9s.9.4.9.9v5.99c0,.5-.4.9-.9.9ZM175.4,48.02c-.5,0-.9-.4-.9-.9v-5.99c0-.5.4-.9.9-.9s.9.4.9.9v5.99c0,.5-.4.9-.9.9ZM270.56,39.89c-.5,0-.9-.4-.9-.9v-5.99c0-.5.4-.9.9-.9s.9.4.9.9v5.99c0,.5-.4.9-.9.9ZM175.4,36.03c-.5,0-.9-.4-.9-.9v-5.99c0-.5.4-.9.9-.9s.9.4.9.9v5.99c0,.5-.4.9-.9.9ZM270.52,27.9c-.47,0-.87-.37-.9-.85-.11-1.92-.48-3.81-1.1-5.62-.16-.47.09-.98.56-1.14.46-.16.98.09,1.14.56.67,1.96,1.08,4.02,1.19,6.1.03.5-.35.92-.85.95-.02,0-.04,0-.05,0ZM175.99,24.09c-.07,0-.14,0-.21-.02-.48-.11-.78-.6-.67-1.08.48-2.03,1.24-3.98,2.25-5.8.24-.43.79-.59,1.22-.35.43.24.59.79.35,1.22-.93,1.68-1.63,3.47-2.07,5.34-.1.41-.47.69-.87.69ZM266.69,16.71c-.29,0-.57-.14-.74-.39-1.09-1.58-2.39-3-3.87-4.23-.38-.32-.43-.88-.11-1.27.32-.38.88-.43,1.27-.12,1.6,1.33,3.01,2.88,4.19,4.59.28.41.18.97-.23,1.25-.16.11-.33.16-.51.16ZM181.73,13.75c-.23,0-.46-.09-.63-.26-.35-.35-.36-.92,0-1.27,1.47-1.48,3.12-2.76,4.93-3.79.43-.25.98-.1,1.23.33.25.43.1.98-.33,1.23-1.66.95-3.19,2.12-4.54,3.49-.18.18-.41.27-.64.27ZM257.6,9.14c-.12,0-.25-.03-.37-.08-1.75-.78-3.6-1.32-5.5-1.61-.49-.07-.83-.53-.76-1.02.07-.49.53-.84,1.02-.76,2.06.3,4.07.89,5.97,1.74.45.2.66.74.45,1.19-.15.33-.48.53-.82.53ZM192.01,7.88c-.4,0-.77-.27-.87-.68-.12-.48.17-.97.65-1.09,1.8-.45,3.67-.68,5.55-.68h.61c.5,0,.9.4.9.9s-.4.9-.9.9h-.61c-1.73,0-3.45.21-5.11.62-.07.02-.15.03-.22.03ZM245.88,7.23h-5.99c-.5,0-.9-.4-.9-.9s.4-.9.9-.9h5.99c.5,0,.9.4.9.9s-.4.9-.9.9ZM233.9,7.23h-5.99c-.5,0-.9-.4-.9-.9s.4-.9.9-.9h5.99c.5,0,.9.4.9.9s-.4.9-.9.9ZM221.91,7.23h-5.99c-.5,0-.9-.4-.9-.9s.4-.9.9-.9h5.99c.5,0,.9.4.9.9s-.4.9-.9.9ZM209.93,7.23h-5.99c-.5,0-.9-.4-.9-.9s.4-.9.9-.9h5.99c.5,0,.9.4.9.9s-.4.9-.9.9Z"/>
        <g>
          <circle class="cls-16" cx="222.98" cy="6.33" r="3.38"/>
          <path class="cls-16" d="M222.98,12.66c-3.49,0-6.33-2.84-6.33-6.33s2.84-6.33,6.33-6.33,6.33,2.84,6.33,6.33-2.84,6.33-6.33,6.33ZM222.98.78c-3.06,0-5.55,2.49-5.55,5.55s2.49,5.55,5.55,5.55,5.55-2.49,5.55-5.55-2.49-5.55-5.55-5.55Z"/>
        </g>
      </g>
      <g>
        <rect class="cls-23" x="169.06" y="55.02" width="57.95" height="9.91"/>
        <path class="cls-19" d="M273.84,51.29h-41.43c-3.01,0-5.87,1.01-7.81,2.76l-11.25,8.42h-44.33c-1.85,0-3.36,1.5-3.36,3.36v61.36c0,1.85,1.5,3.36,3.36,3.36h108.02c1.85,0,3.36-1.5,3.36-3.36V58.75c0-3.94-2.93-7.46-6.55-7.46Z"/>
      </g>
      <path class="cls-15" d="M102.62,236.72l-6.14,5.96c-.2.2-.38.41-.54.64-4.09-2.68-8.55-4.56-13.17-5.64.05-.28.09-.56.09-.85l.09-8.56c.03-2.66-2.11-4.85-4.78-4.88l-8.56-.09c-2.66-.03-4.85,2.11-4.88,4.78l-.09,8.56c0,.29.03.57.07.85-4.52.95-8.9,2.67-12.96,5.15-.15-.23-.33-.45-.52-.65l-5.96-6.14c-1.85-1.91-4.92-1.96-6.83-.11l-6.14,5.96c-1.91,1.85-1.96,4.92-.11,6.83l5.96,6.14c.2.2.41.38.64.54-2.68,4.09-4.56,8.55-5.64,13.17-.28-.05-.56-.09-.85-.09l-8.56-.09c-1.28-.01-2.49.47-3.41,1.36,0,0-.01.01-.02.02-.92.9-1.44,2.11-1.45,3.4l-.09,8.56h0c-.03,2.66,2.11,4.85,4.78,4.88l8.56.09c.29,0,.57-.03.85-.08.95,4.52,2.67,8.9,5.15,12.96-.23.15-.45.33-.65.52l-6.14,5.96c-1.91,1.85-1.96,4.92-.11,6.83l5.96,6.14c1.85,1.91,4.92,1.96,6.83.11l6.14-5.96c.2-.2.38-.41.54-.64,4.09,2.68,8.55,4.56,13.17,5.64-.05.28-.09.56-.09.85l-.09,8.56c-.01,1.29.47,2.51,1.38,3.43.9.92,2.11,1.44,3.4,1.45l8.56.09h0c1.32.01,2.53-.51,3.41-1.36.89-.87,1.45-2.07,1.47-3.41l.09-8.56c0-.29-.03-.57-.08-.85,4.52-.95,8.9-2.67,12.96-5.15.15.23.33.45.53.65l5.96,6.14c1.85,1.91,4.92,1.96,6.83.11l6.14-5.96c1.91-1.85,1.96-4.92.11-6.83l-5.96-6.14c-.2-.2-.41-.38-.64-.55,2.68-4.09,4.56-8.55,5.64-13.17.28.05.56.09.85.09l8.56.09c1.32.01,2.53-.51,3.41-1.36.89-.87,1.45-2.07,1.47-3.41l.09-8.56c.03-2.66-2.11-4.85-4.78-4.88l-8.56-.09c-.29,0-.57.03-.85.07-.95-4.52-2.67-8.9-5.15-12.96.23-.15.45-.33.65-.52l6.14-5.96c1.91-1.85,1.96-4.92.11-6.83l-5.96-6.14c-1.85-1.91-4.92-1.96-6.83-.11ZM89.09,294.11c-8.98,8.7-23.37,8.48-32.07-.5-8.7-8.98-8.48-23.37.5-32.07,8.98-8.7,23.36-8.48,32.07.5,8.7,8.98,8.48,23.36-.5,32.07Z"/>
      <g>
        <rect class="cls-12" x="173.62" y="306.86" width="91.97" height="44.09"/>
        <path class="cls-2" d="M372.38,98.71v200.84c0,6.45-5.23,11.68-11.69,11.68H78.51c-6.45,0-11.69-5.23-11.69-11.68V98.71c0-6.45,5.24-11.69,11.69-11.69h282.18c6.46,0,11.69,5.24,11.69,11.69Z"/>
        <path class="cls-5" d="M225.1,297.1c0,3.31-2.69,6-6,6s-6-2.69-6-6,2.69-6,6-6,6,2.69,6,6Z"/>
        <path class="cls-1" d="M368.71,283.87V100.96c0-5.54-4.34-10.04-9.69-10.04H80.19c-5.35,0-9.69,4.49-9.69,10.04v182.91h298.22Z"/>
        <path class="cls-2" d="M164.72,346.2h109.77c5.07,0,9.19,4.12,9.19,9.19v.31h-128.16v-.31c0-5.07,4.12-9.19,9.19-9.19Z"/>
      </g>
      <g>
        <path class="cls-16" d="M94.54,89.04c0-8.85-6.67-16.14-15.26-17.12.07-.58.11-1.16.11-1.76,0-8.49-6.88-15.37-15.37-15.37-2.27,0-4.43.51-6.37,1.39-4.09-6.38-11.24-10.61-19.38-10.61-12.71,0-23.02,10.3-23.02,23.02,0,1.12.08,2.22.24,3.3-8.7.88-15.49,8.22-15.49,17.16,0,9.52,7.72,17.24,17.24,17.24h60.9v-.04c9.12-.45,16.39-7.97,16.39-17.2Z"/>
        <polygon class="cls-19" points="58.31 119.45 58.31 92.65 36.22 92.65 36.22 119.45 29.32 119.45 47.27 136.26 65.22 119.45 58.31 119.45"/>
      </g>
      <rect class="cls-25" x="239.02" y="65.51" width="72.4" height="36.2" rx="9.08" ry="9.08"/>
      <rect class="cls-25" x="36.56" y="326.01" width="72.4" height="36.2" rx="9.08" ry="9.08"/>
      <rect class="cls-25" x="62.64" y="172.87" width="72.4" height="36.2" rx="9.08" ry="9.08"/>
      <g>
        <path class="cls-16" d="M317.07,324.97h-2.58c-.43,0-.77-.35-.77-.77s.35-.77.77-.77h2.58c.43,0,.77.35.77.77s-.35.77-.77.77Z"/>
        <path class="cls-16" d="M379.08,324.97h-5.17c-.43,0-.78-.35-.78-.77s.35-.77.78-.77h5.17c.43,0,.78.35.78.77s-.35.77-.78.77ZM368.75,324.97h-5.17c-.43,0-.78-.35-.78-.77s.35-.77.78-.77h5.17c.43,0,.77.35.77.77s-.35.77-.77.77ZM358.41,324.97h-5.17c-.43,0-.77-.35-.77-.77s.35-.77.77-.77h5.17c.43,0,.77.35.77.77s-.35.77-.77.77ZM348.08,324.97h-5.17c-.43,0-.77-.35-.77-.77s.35-.77.77-.77h5.17c.43,0,.77.35.77.77s-.35.77-.77.77ZM337.74,324.97h-5.17c-.43,0-.77-.35-.77-.77s.35-.77.77-.77h5.17c.43,0,.78.35.78.77s-.35.77-.78.77ZM327.41,324.97h-5.17c-.43,0-.78-.35-.78-.77s.35-.77.78-.77h5.17c.43,0,.78.35.78.77s-.35.77-.78.77ZM384.2,324.37c-.35,0-.67-.24-.75-.59-.1-.42.15-.83.57-.94,1.61-.39,3.18-.98,4.65-1.75.38-.2.85-.05,1.05.33.2.38.05.85-.33,1.05-1.58.83-3.27,1.46-5,1.88-.06.01-.12.02-.18.02ZM393.28,319.64c-.21,0-.43-.09-.58-.26-.28-.32-.25-.81.07-1.09,1.25-1.1,2.36-2.34,3.31-3.7.24-.35.73-.44,1.08-.19.35.25.44.73.19,1.08-1.02,1.46-2.22,2.8-3.56,3.98-.15.13-.33.19-.51.19ZM399.14,311.26c-.09,0-.19-.02-.28-.05-.4-.15-.6-.6-.44-1,.6-1.55,1.01-3.17,1.21-4.82.05-.42.43-.73.87-.67.42.05.73.44.67.87-.22,1.77-.66,3.51-1.31,5.18-.12.31-.41.5-.72.5ZM400.57,301.1c-.43,0-.78-.35-.78-.78v-5.17c0-.43.35-.78.78-.78s.77.35.77.78v5.17c0,.43-.35.78-.77.78ZM400.57,290.76c-.43,0-.78-.35-.78-.77v-5.17c0-.43.35-.77.78-.77s.77.35.77.77v5.17c0,.43-.35.77-.77.77ZM400.57,280.43c-.43,0-.78-.35-.78-.77v-5.17c0-.43.35-.77.78-.77s.77.35.77.77v5.17c0,.43-.35.77-.77.77ZM400.57,270.09c-.43,0-.78-.35-.78-.77v-5.17c0-.43.35-.77.78-.77s.77.35.77.77v5.17c0,.43-.35.77-.77.77ZM400.57,259.76c-.43,0-.78-.35-.78-.78v-5.17c0-.43.35-.77.78-.77s.77.35.77.77v5.17c0,.43-.35.78-.77.78ZM400.57,249.42c-.43,0-.78-.35-.78-.77v-5.17c0-.43.35-.78.78-.78s.77.35.77.78v5.17c0,.43-.35.77-.77.77ZM400.57,239.09c-.43,0-.78-.35-.78-.77v-5.17c0-.43.35-.77.78-.77s.77.35.77.77v5.17c0,.43-.35.77-.77.77Z"/>
        <path class="cls-16" d="M400.57,228.73c-.43,0-.78-.35-.78-.77v-1.81h-.65c-.43,0-.77-.35-.77-.78s.35-.78.77-.78h1.42c.43,0,.77.35.77.78v2.58c0,.43-.35.77-.77.77Z"/>
      </g>
      <g>
        <rect class="cls-16" x="301.33" y="147.1" width="82.57" height="155.67" rx="7.38" ry="7.38"/>
        <g>
          <rect class="cls-20" x="319.31" y="152.72" width="39.64" height="2.5" rx="1.17" ry="1.17"/>
          <path class="cls-20" d="M365.92,153.97c0,.69-.56,1.25-1.25,1.25s-1.25-.56-1.25-1.25.56-1.25,1.25-1.25,1.25.56,1.25,1.25Z"/>
        </g>
        <rect class="cls-4" x="305.88" y="161.24" width="73.47" height="45.15"/>
        <polygon class="cls-19" points="356.55 180.1 351.17 186.55 337.23 169.87 313.92 197.75 341.8 197.75 360.53 197.75 371.31 197.75 356.55 180.1"/>
        <g>
          <rect class="cls-4" x="305.88" y="266.19" width="34.69" height="20.35"/>
          <polygon class="cls-19" points="329.8 274.09 327.26 277.14 320.68 269.26 309.67 282.43 322.84 282.43 331.68 282.43 336.77 282.43 329.8 274.09"/>
        </g>
        <g class="cls-21">
          <g>
            <rect class="cls-16" x="305.88" y="218" width="34.69" height="1.95"/>
            <rect class="cls-16" x="305.88" y="213.91" width="34.69" height="1.95"/>
            <rect class="cls-16" x="305.88" y="221.99" width="21.93" height="1.95"/>
            <rect class="cls-16" x="329.37" y="221.99" width="11.2" height="1.95"/>
            <rect class="cls-16" x="305.88" y="225.97" width="30.69" height="1.95"/>
            <rect class="cls-16" x="305.88" y="230.07" width="10.66" height="1.95"/>
            <rect class="cls-16" x="318.37" y="230.07" width="7.68" height="1.95"/>
          </g>
        </g>
        <g class="cls-21">
          <g>
            <rect class="cls-16" x="344.66" y="245.29" width="34.69" height="1.95"/>
            <rect class="cls-16" x="344.66" y="241.21" width="34.69" height="1.95"/>
            <rect class="cls-16" x="344.66" y="249.28" width="21.93" height="1.95"/>
            <rect class="cls-16" x="368.16" y="249.28" width="11.2" height="1.95"/>
            <rect class="cls-16" x="344.66" y="253.27" width="30.69" height="1.95"/>
            <rect class="cls-16" x="344.66" y="257.36" width="10.66" height="1.95"/>
            <rect class="cls-16" x="357.16" y="257.36" width="7.68" height="1.95"/>
          </g>
        </g>
        <g class="cls-21">
          <g>
            <rect class="cls-16" x="344.66" y="218" width="34.69" height="1.95"/>
            <rect class="cls-16" x="344.66" y="213.91" width="34.69" height="1.95"/>
            <rect class="cls-16" x="344.66" y="221.99" width="21.93" height="1.95"/>
            <rect class="cls-16" x="368.16" y="221.99" width="11.2" height="1.95"/>
            <rect class="cls-16" x="344.66" y="225.97" width="34.69" height="1.95"/>
            <rect class="cls-16" x="344.66" y="230.07" width="10.66" height="1.95"/>
            <rect class="cls-16" x="357.16" y="230.07" width="22.19" height="1.95"/>
          </g>
        </g>
        <g class="cls-21">
          <g>
            <rect class="cls-16" x="305.88" y="245.29" width="34.69" height="1.95"/>
            <rect class="cls-16" x="305.88" y="241.21" width="34.69" height="1.95"/>
            <rect class="cls-16" x="305.88" y="249.28" width="34.69" height="1.95"/>
            <rect class="cls-16" x="305.88" y="253.27" width="34.69" height="1.95"/>
            <rect class="cls-16" x="305.88" y="257.36" width="34.69" height="1.95"/>
          </g>
        </g>
        <g class="cls-21">
          <g>
            <rect class="cls-16" x="344.66" y="270.94" width="34.69" height="1.95"/>
            <rect class="cls-16" x="344.66" y="266.85" width="34.69" height="1.95"/>
            <rect class="cls-16" x="357.42" y="274.93" width="21.93" height="1.95"/>
            <rect class="cls-16" x="344.66" y="274.93" width="11.2" height="1.95"/>
            <rect class="cls-16" x="344.66" y="278.91" width="26.64" height="1.95"/>
            <rect class="cls-16" x="373.15" y="278.91" width="6.2" height="1.95"/>
            <rect class="cls-16" x="353.76" y="283.01" width="25.59" height="1.95"/>
            <rect class="cls-16" x="344.66" y="283.01" width="7.68" height="1.95"/>
          </g>
        </g>
      </g>
      <rect class="cls-25" x="254.44" y="302.77" width="72.4" height="36.2" rx="9.08" ry="9.08"/>
      <g>
        <path class="cls-16" d="M403.36,278.93c0,1.86-1.51,3.38-3.38,3.38s-3.38-1.51-3.38-3.38,1.51-3.38,3.38-3.38,3.38,1.51,3.38,3.38Z"/>
        <path class="cls-16" d="M399.99,285.26c-3.49,0-6.33-2.84-6.33-6.33s2.84-6.33,6.33-6.33,6.33,2.84,6.33,6.33-2.84,6.33-6.33,6.33ZM399.99,273.37c-3.06,0-5.55,2.49-5.55,5.55s2.49,5.55,5.55,5.55,5.55-2.49,5.55-5.55-2.49-5.55-5.55-5.55Z"/>
      </g>
      <rect class="cls-25" x="365.81" y="193.18" width="72.4" height="36.2" rx="9.08" ry="9.08"/>
      <g>
        <g>
          <rect class="cls-20" x="211.63" y="236.01" width="22.78" height="2.07"/>
          <rect class="cls-20" x="240.26" y="236.01" width="52.76" height="2.07"/>
          <path class="cls-20" d="M265.97,253.79c-9.06,0-18.13-.01-27.17-.03v-2.07c18.07.04,36.3.04,54.2,0v2.07c-8.95.02-17.98.03-27.04.03Z"/>
          <rect class="cls-20" x="230.51" y="243.85" width="62.5" height="2.07"/>
          <rect class="cls-20" x="227.11" y="259.57" width="65.91" height="2.07"/>
          <rect class="cls-20" x="217.97" y="267.41" width="75.05" height="2.07"/>
        </g>
        <g>
          <rect class="cls-16" x="88.51" y="117.82" width="35.28" height="2.07"/>
          <rect class="cls-16" x="169.39" y="117.82" width="36.41" height="2.07"/>
          <rect class="cls-19" x="180.54" y="125.66" width="25.26" height="2.07"/>
          <rect class="cls-19" x="170.15" y="141.38" width="35.65" height="2.07"/>
          <rect class="cls-19" x="163.17" y="149.23" width="42.63" height="2.07"/>
          <rect class="cls-19" x="150.97" y="158.39" width="54.83" height="2.07"/>
          <rect class="cls-19" x="129.51" y="117.82" width="35.28" height="2.07"/>
          <path class="cls-19" d="M177.32,135.61c-5.39,0-10.8,0-21.62-.02h-7.03s0-2.08,0-2.08h7.03q21.63.04,43.11,0h6.99s0,2.06,0,2.06h-6.98c-10.74.02-16.11.03-21.5.03Z"/>
          <path class="cls-16" d="M115.55,135.61c-9.06,0-18.09-.01-27.04-.03v-2.07c17.9.04,36.14.04,54.2,0v2.07c-9.03.02-18.11.03-27.16.03Z"/>
          <rect class="cls-16" x="88.51" y="125.66" width="87.03" height="2.07"/>
          <rect class="cls-16" x="88.51" y="158.39" width="57.63" height="2.07"/>
          <rect class="cls-16" x="88.51" y="141.38" width="77.15" height="2.07"/>
          <rect class="cls-16" x="88.51" y="149.23" width="69.92" height="2.07"/>
          <g>
            <circle class="cls-2" cx="81.12" cy="118.85" r="1.43"/>
            <path class="cls-2" d="M82.55,126.7c0,.79-.64,1.43-1.43,1.43s-1.43-.64-1.43-1.43.64-1.43,1.43-1.43,1.43.64,1.43,1.43Z"/>
            <circle class="cls-2" cx="81.12" cy="134.54" r="1.43"/>
            <path class="cls-2" d="M82.55,142.38c0,.79-.64,1.43-1.43,1.43s-1.43-.64-1.43-1.43.64-1.43,1.43-1.43,1.43.64,1.43,1.43Z"/>
            <circle class="cls-2" cx="81.12" cy="150.26" r="1.43"/>
            <path class="cls-2" d="M82.55,159.43c0,.79-.64,1.43-1.43,1.43s-1.43-.64-1.43-1.43.64-1.43,1.43-1.43,1.43.64,1.43,1.43Z"/>
          </g>
          <path class="cls-2" d="M215.21,164.1c-.29,0-.52-.23-.52-.52v-45.89c0-.29.23-.52.52-.52s.52.23.52.52v45.89c0,.29-.23.52-.52.52Z"/>
        </g>
        <g>
          <path class="cls-20" d="M127.24,263.09h-3.18c-.29,0-.53-.24-.53-.53s.24-.53.53-.53h3.18c.29,0,.53.24.53.53s-.24.53-.53.53ZM120.89,263.09h-3.18c-.29,0-.53-.24-.53-.53s.24-.53.53-.53h3.18c.29,0,.53.24.53.53s-.24.53-.53.53ZM114.54,263.09h-1.29c-.72,0-1.44-.18-2.07-.53-.26-.14-.35-.46-.21-.72.14-.26.47-.35.72-.21.47.26,1.01.4,1.55.4h1.29c.29,0,.53.24.53.53s-.24.53-.53.53ZM109.6,260.15c-.24,0-.46-.17-.52-.42-.07-.3-.1-.61-.1-.91v-2.37c0-.29.24-.53.53-.53s.53.24.53.53v2.37c0,.23.02.46.07.69.06.29-.12.57-.4.63-.04,0-.08.01-.11.01ZM109.51,253.81c-.29,0-.53-.24-.53-.53v-3.18c0-.29.24-.53.53-.53s.53.24.53.53v3.18c0,.29-.24.53-.53.53ZM109.51,247.45c-.29,0-.53-.24-.53-.53v-3.18c0-.29.24-.53.53-.53s.53.24.53.53v3.18c0,.29-.24.53-.53.53ZM109.51,241.1c-.29,0-.53-.24-.53-.53v-3.18c0-.29.24-.53.53-.53s.53.24.53.53v3.18c0,.29-.24.53-.53.53ZM109.51,234.75c-.29,0-.53-.24-.53-.53v-.39c0-1.08.4-2.11,1.13-2.9.2-.21.53-.23.75-.03.21.2.23.53.03.75-.55.59-.85,1.37-.85,2.18v.39c0,.29-.24.53-.53.53ZM129.23,230.62h-3.18c-.29,0-.53-.24-.53-.53s.24-.53.53-.53h3.18c.29,0,.53.24.53.53s-.24.53-.53.53ZM122.87,230.62h-3.18c-.29,0-.53-.24-.53-.53s.24-.53.53-.53h3.18c.29,0,.53.24.53.53s-.24.53-.53.53ZM116.52,230.62h-3.18c-.29,0-.53-.24-.53-.53s.24-.53.53-.53h3.18c.29,0,.53.24.53.53s-.24.53-.53.53Z"/>
          <rect class="cls-20" x="121.76" y="249.34" width="17.01" height="2.12"/>
          <rect class="cls-20" x="143.22" y="249.34" width="27.47" height="2.12"/>
          <rect class="cls-20" x="153.68" y="267.36" width="17" height="2.12"/>
          <rect class="cls-20" x="121.76" y="267.36" width="27.47" height="2.12"/>
          <rect class="cls-20" x="121.76" y="255.48" width="29.91" height="2.12"/>
          <rect class="cls-20" x="156.12" y="255.48" width="14.57" height="2.12"/>
          <rect class="cls-20" x="121.76" y="261.5" width="24.61" height="2.12"/>
          <rect class="cls-20" x="153.99" y="261.5" width="16.7" height="2.12"/>
          <g>
            <rect class="cls-19" x="121.76" y="223.76" width="8.9" height="16.58"/>
            <rect class="cls-2" x="135.73" y="217.46" width="8.9" height="22.87"/>
            <rect class="cls-25" x="149.23" y="204.42" width="8.9" height="35.91"/>
          </g>
          <rect class="cls-20" x="148.73" y="261.5" width="3.2" height="2.12"/>
        </g>
        <g>
          <rect class="cls-16" x="225.57" y="148.16" width="66.64" height="74.35"/>
          <g>
            <rect class="cls-4" x="230.95" y="161.37" width="46.47" height="1.55"/>
            <path class="cls-4" d="M254.14,174.2c-7.98,0-15.94,0-23.19-.03v-1.55c14.48.04,31.85.04,46.47,0v1.55c-7.3.02-15.3.03-23.28.03Z"/>
            <rect class="cls-4" x="230.95" y="167" width="46.47" height="1.55"/>
            <rect class="cls-4" x="230.95" y="178.28" width="33.87" height="1.55"/>
            <rect class="cls-4" x="230.95" y="216.17" width="46.47" height="1.55"/>
            <path class="cls-4" d="M277.42,206.46c-14.61-.03-31.98-.03-46.46,0v-1.55c14.48-.03,31.85-.03,46.47,0v1.55Z"/>
            <rect class="cls-4" x="230.95" y="210.54" width="46.47" height="1.55"/>
            <rect class="cls-4" x="230.95" y="199.26" width="33.87" height="1.55"/>
          </g>
          <path class="cls-25" d="M293.25,223.54h-68.71v-76.44h68.71v76.44ZM225.57,222.51h66.64v-74.37h-66.64v74.37Z"/>
          <rect class="cls-25" x="225.06" y="147.62" width="67.67" height="8.91"/>
          <g>
            <path class="cls-4" d="M273.4,195.3c-.18,0-.37-.06-.51-.19l-5.21-4.6c-.17-.15-.26-.36-.26-.58s.09-.43.26-.58l5.21-4.6c.32-.28.81-.25,1.09.07.28.32.25.81-.07,1.09l-4.55,4.02,4.55,4.02c.32.28.35.77.07,1.09-.15.17-.37.26-.58.26Z"/>
            <path class="cls-4" d="M281.44,195.3c-.21,0-.43-.09-.58-.26-.28-.32-.25-.81.07-1.09l4.55-4.02-4.55-4.02c-.32-.28-.35-.77-.07-1.09.28-.32.77-.35,1.09-.07l5.21,4.6c.17.15.26.36.26.58s-.09.43-.26.58l-5.21,4.6c-.15.13-.33.19-.51.19Z"/>
          </g>
          <g>
            <path class="cls-4" d="M231.47,152.07l1.81-1.81c.17-.17.17-.45,0-.62s-.45-.17-.62,0l-1.81,1.81-1.81-1.81c-.17-.17-.45-.17-.62,0-.17.17-.17.45,0,.62l1.81,1.81-1.81,1.81c-.17.17-.17.45,0,.62.09.09.2.13.31.13s.22-.04.31-.13l1.81-1.81,1.81,1.81c.09.09.2.13.31.13s.22-.04.31-.13c.17-.17.17-.45,0-.62l-1.81-1.81Z"/>
            <path class="cls-4" d="M239.21,154.62c-1.41,0-2.55-1.14-2.55-2.55s1.14-2.55,2.55-2.55,2.55,1.14,2.55,2.55-1.14,2.55-2.55,2.55ZM239.21,150.33c-.96,0-1.73.78-1.73,1.73s.78,1.73,1.73,1.73,1.73-.78,1.73-1.73-.78-1.73-1.73-1.73Z"/>
            <path class="cls-4" d="M249.08,154.62h-4.16c-.24,0-.44-.2-.44-.44s.2-.44.44-.44h4.16c.24,0,.44.2.44.44s-.2.44-.44.44Z"/>
          </g>
        </g>
      </g>
      <path class="cls-20" d="M204.28,48.06l-6.02,1.9c-.2.06-.39.15-.57.24-1.81-3.12-4.14-5.83-6.83-8.07.13-.17.24-.34.34-.53l2.88-5.62c.9-1.75.21-3.9-1.54-4.8l-5.62-2.88c-1.75-.9-3.9-.21-4.8,1.54l-2.88,5.62c-.1.19-.17.38-.23.58-3.29-.86-6.76-1.17-10.25-.87-.03-.2-.07-.4-.13-.6l-1.9-6.02c-.59-1.87-2.6-2.91-4.47-2.32l-6.02,1.9c-1.87.59-2.91,2.6-2.32,4.47l1.9,6.02c.06.2.15.39.24.57-3.12,1.81-5.83,4.14-8.07,6.83-.17-.13-.34-.24-.53-.34l-5.62-2.88c-.84-.43-1.8-.51-2.7-.23,0,0-.01,0-.02,0-.91.29-1.64.92-2.08,1.76l-2.88,5.62h0c-.9,1.75-.21,3.9,1.54,4.8l5.62,2.88c.19.1.39.17.58.23-.86,3.3-1.17,6.76-.87,10.25-.2.03-.4.07-.6.13l-6.02,1.9c-1.87.59-2.91,2.6-2.32,4.47l1.9,6.02c.59,1.87,2.6,2.91,4.47,2.32l6.02-1.9c.2-.06.39-.15.57-.24,1.81,3.12,4.14,5.83,6.83,8.07-.13.16-.24.34-.34.53l-2.88,5.62c-.43.85-.51,1.81-.22,2.72.29.91.92,1.64,1.76,2.08l5.62,2.88h0c.87.45,1.84.5,2.7.23.87-.28,1.64-.89,2.1-1.77l2.88-5.62c.1-.19.17-.39.23-.58,3.3.86,6.76,1.17,10.25.87.03.2.07.4.13.6l1.9,6.02c.59,1.87,2.6,2.91,4.47,2.32l6.02-1.9c1.87-.59,2.91-2.6,2.32-4.47l-1.9-6.02c-.06-.2-.15-.39-.24-.57,3.12-1.81,5.83-4.14,8.07-6.83.16.13.34.24.53.34l5.62,2.88c.87.45,1.84.5,2.7.23.87-.28,1.64-.89,2.09-1.77l2.88-5.62c.9-1.75.21-3.9-1.54-4.8l-5.62-2.88c-.19-.1-.38-.17-.58-.23.86-3.29,1.17-6.76.87-10.25.2-.03.4-.07.6-.13l6.02-1.9c1.87-.59,2.91-2.6,2.32-4.47l-1.9-6.02c-.59-1.87-2.6-2.91-4.47-2.32ZM176.42,81.46c-8.8,2.78-18.21-2.11-21-10.9-2.78-8.8,2.11-18.21,10.91-21,8.79-2.78,18.21,2.11,21,10.91,2.78,8.79-2.11,18.21-10.9,21Z"/>
      <g>
        <path class="cls-16" d="M196.68,187.78l-1.46,3.58c-.05.12-.08.24-.11.36-2.18-.37-4.37-.34-6.48.06-.03-.12-.06-.25-.12-.37l-1.52-3.56c-.47-1.11-1.76-1.63-2.86-1.15l-3.56,1.52c-1.11.47-1.63,1.76-1.15,2.86l1.52,3.56c.05.12.11.23.18.34-1.7,1.22-3.2,2.72-4.43,4.49-.11-.07-.22-.13-.34-.17l-3.58-1.46c-1.11-.46-2.39.08-2.85,1.2l-1.46,3.58c-.46,1.11.08,2.39,1.2,2.85l3.58,1.46c.12.05.24.08.36.11-.37,2.18-.34,4.37.06,6.48-.12.03-.25.06-.37.12l-3.56,1.52c-.53.23-.95.65-1.17,1.18,0,0,0,0,0,0-.22.54-.21,1.13.02,1.67l1.52,3.56h0c.47,1.11,1.76,1.63,2.86,1.15l3.56-1.52c.12-.05.23-.12.34-.19,1.22,1.7,2.72,3.2,4.49,4.43-.07.11-.13.22-.17.34l-1.46,3.58c-.46,1.11.08,2.39,1.2,2.85l3.58,1.46c1.11.46,2.39-.08,2.85-1.2l1.46-3.58c.05-.12.08-.24.11-.36,2.18.37,4.37.34,6.48-.06.03.12.06.25.11.37l1.52,3.56c.23.54.65.95,1.19,1.17.54.22,1.13.21,1.67-.02l3.56-1.52h0c.55-.23.95-.67,1.16-1.18.21-.52.23-1.12-.01-1.68l-1.52-3.56c-.05-.12-.12-.23-.19-.34,1.7-1.22,3.2-2.72,4.43-4.49.11.07.22.13.34.17l3.58,1.46c1.11.46,2.39-.08,2.85-1.2l1.46-3.58c.46-1.11-.08-2.39-1.2-2.85l-3.58-1.46c-.12-.05-.24-.08-.36-.11.37-2.18.34-4.37-.06-6.48.12-.03.25-.06.37-.11l3.56-1.52c.55-.23.96-.67,1.17-1.18.21-.52.23-1.12-.01-1.68l-1.52-3.56c-.47-1.11-1.76-1.63-2.86-1.15l-3.56,1.52c-.12.05-.23.11-.34.18-1.22-1.7-2.72-3.2-4.49-4.43.07-.11.13-.22.17-.34l1.46-3.58c.46-1.11-.08-2.39-1.2-2.85l-3.58-1.46c-1.11-.46-2.39.08-2.85,1.2ZM201.5,214c-2.14,5.24-8.14,7.76-13.37,5.62-5.24-2.14-7.76-8.14-5.62-13.37,2.14-5.24,8.14-7.76,13.37-5.62,5.23,2.14,7.76,8.14,5.62,13.37Z"/>
        <path class="cls-14" d="M172.95,169.59l-1.9,1.93c-.06.06-.12.13-.17.21-1.31-.82-2.74-1.38-4.21-1.69.01-.09.02-.18.02-.27l-.03-2.71c0-.84-.7-1.52-1.55-1.51l-2.71.03c-.84,0-1.52.7-1.51,1.55l.03,2.71c0,.09.01.18.03.27-1.42.33-2.8.91-4.07,1.72-.05-.07-.11-.14-.17-.2l-1.93-1.9c-.6-.59-1.57-.59-2.16.01l-1.9,1.93c-.59.6-.59,1.57.01,2.16l1.93,1.9c.06.06.13.12.2.17-.82,1.31-1.38,2.74-1.69,4.21-.09-.01-.18-.02-.27-.02l-2.71.03c-.41,0-.79.17-1.07.45,0,0,0,0,0,0-.29.29-.44.68-.44,1.09l.03,2.71h0c0,.84.7,1.52,1.55,1.51l2.71-.03c.09,0,.18-.01.27-.03.33,1.42.91,2.8,1.72,4.07-.07.05-.14.11-.2.17l-1.9,1.93c-.59.6-.59,1.57.01,2.16l1.93,1.9c.6.59,1.57.59,2.16-.01l1.9-1.93c.06-.06.12-.13.17-.2,1.31.82,2.74,1.38,4.21,1.69-.01.09-.03.18-.02.27l.03,2.71c0,.41.17.79.46,1.08.29.29.68.44,1.09.44l2.71-.03h0c.42,0,.8-.18,1.07-.46.28-.28.45-.67.44-1.09l-.03-2.71c0-.09-.01-.18-.03-.27,1.42-.33,2.8-.91,4.07-1.72.05.07.11.14.17.2l1.93,1.9c.6.59,1.57.59,2.16-.01l1.9-1.93c.59-.6.59-1.57-.01-2.16l-1.93-1.9c-.06-.06-.13-.12-.21-.17.82-1.31,1.38-2.74,1.69-4.21.09.01.18.03.27.02l2.71-.03c.42,0,.8-.18,1.07-.46.28-.28.45-.67.44-1.09l-.03-2.71c0-.84-.7-1.52-1.55-1.51l-2.71.03c-.09,0-.18.01-.27.03-.33-1.42-.91-2.8-1.72-4.07.07-.05.14-.11.2-.17l1.9-1.93c.59-.6.59-1.57-.01-2.16l-1.93-1.9c-.6-.59-1.57-.59-2.16.01ZM169.07,187.86c-2.78,2.82-7.34,2.85-10.16.07-2.82-2.78-2.85-7.34-.07-10.16,2.78-2.82,7.34-2.85,10.16-.07,2.82,2.78,2.85,7.34.07,10.16Z"/>
      </g>
      <g>
        <g>
          <rect class="cls-20" x="8.35" y="144.39" width="12.36" height="2.07"/>
          <rect class="cls-20" x="25.82" y="144.39" width="31.51" height="2.07"/>
          <rect class="cls-20" x="37.82" y="166.58" width="19.51" height="2.07"/>
          <rect class="cls-20" x="8.35" y="166.58" width="24.36" height="2.07"/>
          <rect class="cls-20" x="8.35" y="151.95" width="27.16" height="2.07"/>
          <rect class="cls-20" x="40.62" y="151.95" width="16.71" height="2.07"/>
          <rect class="cls-20" x="8.35" y="159.37" width="21.08" height="2.07"/>
          <rect class="cls-20" x="38.17" y="159.37" width="19.16" height="2.07"/>
          <rect class="cls-20" x="32.13" y="159.37" width="3.67" height="2.07"/>
        </g>
        <g>
          <rect class="cls-20" x="333.98" y="337.95" width="12.36" height="2.07"/>
          <rect class="cls-20" x="351.44" y="337.95" width="31.51" height="2.07"/>
          <rect class="cls-20" x="363.45" y="360.14" width="19.51" height="2.07"/>
          <rect class="cls-20" x="333.98" y="360.14" width="24.36" height="2.07"/>
          <rect class="cls-20" x="333.98" y="345.51" width="27.16" height="2.07"/>
          <rect class="cls-20" x="366.24" y="345.51" width="16.71" height="2.07"/>
          <rect class="cls-20" x="333.98" y="352.93" width="21.08" height="2.07"/>
          <rect class="cls-20" x="363.8" y="352.93" width="19.16" height="2.07"/>
          <rect class="cls-20" x="357.76" y="352.93" width="3.67" height="2.07"/>
        </g>
      </g>
      <path class="cls-20" d="M375.05,82.9l-4.85,1.04c-.16.03-.32.09-.46.14-1.19-2.57-2.8-4.87-4.74-6.82.11-.12.22-.25.31-.39l2.68-4.18c.83-1.3.45-3.04-.85-3.87l-4.18-2.68c-1.3-.83-3.04-.45-3.87.85l-2.68,4.18c-.09.14-.16.29-.22.44-2.51-.92-5.2-1.42-7.95-1.45,0-.16-.02-.32-.06-.48l-1.04-4.85c-.32-1.51-1.81-2.48-3.32-2.15l-4.85,1.04c-1.51.32-2.48,1.81-2.15,3.32l1.04,4.85c.03.16.09.32.14.46-2.57,1.18-4.87,2.8-6.82,4.74-.12-.11-.25-.22-.39-.31l-4.18-2.68c-.63-.4-1.37-.54-2.1-.38,0,0,0,0-.01,0-.73.16-1.36.6-1.76,1.22l-2.68,4.18h0c-.83,1.3-.45,3.04.85,3.87l4.18,2.68c.14.09.29.16.44.22-.92,2.51-1.43,5.2-1.45,7.96-.16,0-.32.02-.48.06l-4.85,1.04c-1.51.32-2.48,1.81-2.15,3.32l1.04,4.85c.32,1.51,1.81,2.48,3.32,2.15l4.85-1.04c.16-.03.32-.09.46-.14,1.19,2.57,2.8,4.87,4.74,6.82-.11.12-.22.25-.31.39l-2.68,4.18c-.4.63-.54,1.38-.38,2.11.16.73.6,1.36,1.22,1.76l4.18,2.68h0c.65.41,1.4.53,2.1.38.71-.15,1.35-.57,1.77-1.23l2.68-4.18c.09-.14.16-.29.22-.44,2.51.92,5.2,1.43,7.96,1.45,0,.16.02.32.06.48l1.04,4.85c.32,1.51,1.81,2.48,3.32,2.15l4.85-1.04c1.51-.32,2.48-1.81,2.15-3.32l-1.04-4.85c-.03-.16-.09-.32-.14-.46,2.57-1.19,4.87-2.8,6.82-4.74.12.11.25.22.39.31l4.18,2.68c.65.41,1.4.53,2.1.38.71-.15,1.35-.57,1.77-1.23l2.68-4.18c.83-1.3.45-3.04-.85-3.87l-4.18-2.68c-.14-.09-.29-.16-.44-.22.92-2.51,1.42-5.2,1.45-7.95.16,0,.32-.02.48-.06l4.85-1.04c1.51-.32,2.48-1.81,2.15-3.32l-1.04-4.85c-.32-1.51-1.81-2.48-3.32-2.15ZM350.75,106.95c-7.09,1.52-14.09-3.02-15.61-10.11-1.52-7.09,3.02-14.09,10.11-15.61,7.09-1.52,14.09,3.02,15.61,10.11,1.52,7.09-3.02,14.09-10.11,15.61Z"/>
    </g>
    <g id="TEXTS">
      <text class="cls-6" transform="translate(254.34 91.67)"><tspan x="0" y="0">&lt;/&gt;</tspan></text>
      <text class="cls-10" transform="translate(46.24 349.34)"><tspan x="0" y="0">HTML</tspan></text>
      <text class="cls-8" transform="translate(88.52 197.04)"><tspan x="0" y="0">JS</tspan></text>
      <text class="cls-9" transform="translate(269.34 327.92)"><tspan class="cls-13" x="0" y="0">C</tspan><tspan class="cls-24" x="17.7" y="0">+</tspan><tspan class="cls-18" x="32.43" y="0">+</tspan></text>
      <text class="cls-7" transform="translate(377.66 217.35)"><tspan class="cls-11" x="0" y="0">J</tspan><tspan class="cls-3" x="9.6" y="0">AV</tspan><tspan x="35.83" y="0">A</tspan></text>
    </g>
  </g>
</svg>